<?xml version="1.0" encoding="UTF-8"?>
<!DOCTYPE svg PUBLIC "-//W3C//DTD SVG 1.1//EN" "http://www.w3.org/Graphics/SVG/1.1/DTD/svg11.dtd">
<!-- Creator: CorelDRAW 2020 (64 Bit) -->
<svg xmlns="http://www.w3.org/2000/svg" xml:space="preserve" width="153.194mm" height="24.9119mm" version="1.1" style="shape-rendering:geometricPrecision; text-rendering:geometricPrecision; image-rendering:optimizeQuality; fill-rule:evenodd; clip-rule:evenodd"
viewBox="0 0 85710.09 13937.93"
 xmlns:xlink="http://www.w3.org/1999/xlink"
 xmlns:xodm="http://www.corel.com/coreldraw/odm/2003">
 <defs>
  <style type="text/css">
   <![CDATA[
    .fil1 {fill:white;fill-rule:nonzero}
    .fil0 {fill:url(#id0)}
   ]]>
  </style>
  <linearGradient id="id0" gradientUnits="userSpaceOnUse" x1="-0" y1="6968.99" x2="15650.39" y2="6968.99">
   <stop offset="0" style="stop-opacity:1; stop-color:#6F059A"/>
   <stop offset="1" style="stop-opacity:1; stop-color:#16D3D3"/>
  </linearGradient>
 </defs>
 <g id="Camada_x0020_1">
  <metadata id="CorelCorpID_0Corel-Layer"/>
  <g id="_2669446781056">
   <path class="fil0" d="M9987.88 7247.17c-461.86,-7.66 -780.77,92.43 -940.28,-282.54 192.18,-413.01 517.02,-283.72 940.28,-289.14l2734.78 7.22c854.06,0.39 1813.69,136.18 2475.51,-528.83 250.43,-251.71 465.05,-659.75 450.95,-1150.31 -26.74,-930.37 -733.88,-1542.85 -1659.28,-1603.89 -941.9,3.3 -1542.23,726.94 -1609.2,1647.97l1039.36 -12.48c185.36,-319.02 133.77,-519.32 610.46,-543.71 635.3,96.9 833.97,897.36 -26.91,1094.3l-514.67 18.18 -3046.75 -6.77 2196.55 -2301.34c285.12,-285.62 784.35,-695.11 925.17,-1209.39 370.83,-1354.58 -1088.43,-2333.74 -1993.96,-2031.22 -1082.39,361.49 -1591.07,1694.19 -810.7,2682.86 258.09,-75.48 574.93,-460.79 770.64,-632.89 -106.41,-416.48 -120.96,-349.12 31.78,-890.09 651.24,-349.74 1200.77,183.74 887.41,653.71l-3306.24 3479.24c-85.21,102.72 -745.52,733.15 -901.67,806.78l-393.77 -334.97 1578.09 -1725.46c255.18,-276.16 521.67,-542.93 573.53,-1096.99 148.38,-1584.7 -1722.33,-2289.88 -2736.91,-1365.21 -582.15,530.62 -742.72,1826.95 -39.11,2330.61l680.79 -622.71c-25.9,-431.87 -186.7,-940.22 341.34,-1027.11 444.85,-73.18 809.13,266.37 629.7,716.82 -47.78,119.84 -1582.63,1807.43 -1828.74,1947.02 -226.2,-94.95 -871.57,-789.83 -1225.17,-1054.3 -1045.96,-782.33 -2513.61,-836.77 -3763.01,-337.09 -3260.42,1304.06 -2662.89,7437.4 1909.31,7110.54 347.39,-24.84 1087.93,-173.11 1304.67,-354.55 344.14,-128.96 722.36,-463.54 904.86,-661.54 170.36,-184.8 619.19,-621.98 869.33,-725.1 357.57,182.62 1829.58,1824.83 1867.63,2074.92 64.79,426.61 -341.57,730.3 -766.11,553.56 -466.67,-194.25 -262.4,-558.87 -203.49,-1000.87 -196.38,-141.66 -533.58,-548.02 -725.71,-624.39 -263.74,289.7 -476.52,540.35 -456.82,1145.89 62.22,1908.64 2304.2,1833.72 2862.68,1085.24 626.74,-840.02 455.48,-1607.52 -163.15,-2304.14 -131.76,-148.38 -232.3,-293.84 -381.91,-430.02 -342.46,-311.75 -1030.58,-952.03 -1231.15,-1295.27 90.75,-190.62 205.33,-298.38 393.1,-392.48l3725.13 3681.16 536.05 689.01c160.8,398.24 -157.55,637.65 -449.77,717.04 -245,9.85 -406.97,-31.22 -511.26,-226.37 -135.84,-254.18 -25.68,-426.67 -0.67,-656.06 17.96,-164.66 -190.45,-308.39 -292.89,-417.21 -72.01,-76.48 -114.7,-122.14 -185.13,-198.84 -98.81,-107.7 -91.92,-121.63 -217.98,-177.69 -474.95,247.85 -605.14,1214.26 -330.15,1836.35 227.26,514.11 759.06,918.9 1514.76,923.32 948.56,-66.13 1775.71,-858.31 1555.32,-1948.98 -107.31,-531.07 -428.29,-834.87 -686.1,-1103.59l-2456.1 -2560.39 3133.53 -2.8 414.02 16.56c849.75,152.85 731.81,1058.05 0,1094.98 -443.79,-59.47 -377.43,-248.25 -571.8,-525.02l-1020.73 -18.35c-9.29,917.73 691.64,1595.49 1592.53,1630.18 891.43,-37.32 1576.19,-645.65 1654.13,-1505.3 45.04,-496.99 -154.31,-927.97 -393.26,-1206.48 -607.27,-707.81 -1701.07,-565.14 -2528.05,-567.43l-2734.78 5.87zm-5835.24 -2903.07c897.81,146.64 1679.53,767.95 2224.36,1468.21l-355.28 373.51c-549.19,-556.3 -820.99,-1286.66 -2172.21,-1160.49 -2592.56,310.24 -2342.47,4016.63 305.54,3938.3 1189.86,-134.28 1396.6,-587.18 1876.13,-1164.3l341.62 317.68c-433.94,725.99 -1560.58,1527.18 -2398.81,1553.25 -873.64,27.19 -1791.59,-365.12 -2311.58,-1078.13 -556.75,-763.42 -672.39,-1754.05 -322.04,-2638.6 446.53,-1127.26 1646.8,-1799.76 2812.27,-1609.43zm1.4 1766.19c430.3,113.41 784.24,572.25 1056.54,849.98 -173.27,246.34 -660.76,779.26 -1015.98,903.07 -612.14,88.79 -1048.65,-220.27 -1076.68,-813.94 -30.72,-649.73 390.69,-995.22 1036.12,-939.1zm3225.17 284.22l510.7 511.43c-98.53,227.99 -281.53,302.24 -406.8,479.76l-359.14 332.34c-180.66,-192.52 -657.46,-578.85 -758,-812.94l727.28 -708.82c186.53,61.54 135.62,95.06 285.95,198.23z"/>
   <path class="fil1" d="M20666.28 4805.78l1799.26 0 0 5465.53 1654.18 0 0 -5465.53 1799.26 0 0 -1325.26 -5252.7 0 0 1325.26zm8580.99 1315.58c551.38,0 1015.7,338.6 1015.7,928.7l-2070.11 0c96.74,-599.77 512.72,-928.7 1054.41,-928.7zm2582.82 2360.37l-1760.6 0c-135.4,290.21 -396.62,522.34 -860.94,522.34 -532.02,0 -967.36,-328.87 -1025.37,-1035.05l3743.65 0c19.36,-164.43 29.04,-328.92 29.04,-483.68 0,-1644.51 -1112.49,-2689.24 -2689.24,-2689.24 -1605.84,0 -2727.95,1064.09 -2727.95,2776.29 0,1712.2 1141.47,2776.29 2727.95,2776.29 1344.62,0 2302.3,-812.55 2563.47,-1866.96zm784.18 -919.02c0,1702.58 1054.41,2785.97 2369.99,2785.97 802.92,0 1373.66,-367.58 1673.54,-841.58l0 764.21 1654.18 0 0 -5397.84 -1654.18 0 0 764.21c-290.21,-474 -860.94,-841.58 -1663.86,-841.58 -1325.26,0 -2379.67,1064.09 -2379.67,2766.62zm4043.54 9.68c0,860.94 -551.38,1334.94 -1180.19,1334.94 -619.07,0 -1180.13,-483.68 -1180.13,-1344.62 0,-860.94 561.06,-1325.26 1180.13,-1325.26 628.81,0 1180.19,474 1180.19,1334.94zm10409.29 2698.92l1644.51 0 0 -3153.56c0,-1451.03 -860.94,-2302.3 -2195.88,-2302.3 -783.56,0 -1460.71,435.28 -1818.62,1006.02 -367.58,-648.11 -1025.37,-1006.02 -1837.98,-1006.02 -706.19,0 -1257.56,299.89 -1576.81,735.17l0 -677.15 -1654.13 0 0 5397.84 1654.13 0 0 -2931.05c0,-706.19 406.3,-1093.13 1035.11,-1093.13 628.75,0 1035.05,386.94 1035.05,1093.13l0 2931.05 1644.51 0 0 -2931.05c0,-706.19 406.24,-1093.13 1035.05,-1093.13 628.75,0 1035.05,386.94 1035.05,1093.13l0 2931.05z"/>
   <path class="fil1" d="M49353.06 3799.32l1989.93 0 0 6541.32 714.36 0 0 -6541.32 1979.75 0 0 -591.94 -4684.04 0 0 591.94zm5203.97 3745.16c0,1745.05 1132.74,2877.79 2653.26,2877.79 1112.38,0 1887.94,-602.07 2214.46,-1316.42l0 1234.79 714.36 0 0 -5571.89 -714.36 0 0 1224.61c-316.33,-704.17 -1081.72,-1306.24 -2204.22,-1306.24 -1530.76,0 -2663.5,1112.32 -2663.5,2857.36zm4867.72 10.24c0,1387.87 -928.64,2245.06 -2071.56,2245.06 -1173.58,0 -2071.62,-847.01 -2071.62,-2255.3 0,-1418.47 898.04,-2234.88 2071.62,-2234.88 1142.92,0 2071.56,857.25 2071.56,2245.12zm1734.36 0c0,1765.41 1132.74,2867.55 2704.29,2867.55 1398.11,0 2306.32,-785.75 2561.45,-1898.12l-765.38 0c-193.86,816.41 -857.19,1296.06 -1796.07,1296.06 -1091.9,0 -1979.75,-755.2 -1979.75,-2265.48 0,-1510.34 887.85,-2255.3 1979.75,-2255.3 938.88,0 1612.39,489.83 1796.07,1285.82l765.38 0c-255.13,-1153.16 -1163.34,-1898.12 -2561.45,-1898.12 -1571.55,0 -2704.29,1102.14 -2704.29,2867.6zm11122.86 -2785.97l-714.36 0 0 3030.86c0,1357.26 -724.54,2010.35 -1765.47,2010.35 -1020.51,0 -1694.02,-632.67 -1694.02,-1867.46l0 -3173.76 -704.12 0 0 3255.38c0,1632.76 1000.09,2408.38 2265.48,2408.38 826.59,0 1561.37,-367.42 1898.12,-1071.53l0 979.66 714.36 0 0 -5571.89zm1346.52 5571.89l714.36 0 0 -7551.64 -714.36 0 0 7551.64zm6877.63 -5571.89l-714.36 0 0 3030.86c0,1357.26 -724.54,2010.35 -1765.47,2010.35 -1020.51,0 -1694.02,-632.67 -1694.02,-1867.46l0 -3173.76 -704.12 0 0 3255.38c0,1632.76 1000.09,2408.38 2265.48,2408.38 826.59,0 1561.37,-367.42 1898.12,-1071.53l0 979.66 714.36 0 0 -5571.89zm5203.97 4092.16c-30.6,-1969.51 -3326.83,-1163.34 -3326.83,-2673.68 0,-489.83 469.47,-887.8 1214.43,-887.8 847.01,0 1306.18,469.41 1347.02,1091.9l714.36 0c-61.26,-1071.48 -847.01,-1704.2 -2041.01,-1704.2 -1173.53,0 -1959.33,683.75 -1959.33,1510.34 0,2091.98 3347.2,1285.82 3347.2,2663.45 0,530.68 -448.99,959.3 -1244.97,959.3 -908.22,0 -1438.89,-438.81 -1500.1,-1051.11l-734.78 0c91.87,1020.51 979.66,1653.18 2245.06,1653.18 1153.16,0 1938.96,-663.33 1938.96,-1561.37z"/>
  </g>
 </g>
</svg>
