<svg id="Robot_-_Ingressos" data-name="Robot - Ingressos" xmlns="http://www.w3.org/2000/svg" xmlns:xlink="http://www.w3.org/1999/xlink" width="706.868" height="706.326" viewBox="0 0 706.868 706.326">
  <defs>
    <radialGradient id="radial-gradient" cx="0.5" cy="0.512" r="2.246" gradientTransform="matrix(-0.223, 0, 0, 0.22, 0.611, -11.879)" gradientUnits="objectBoundingBox">
      <stop offset="0" stop-color="#be9dea"/>
      <stop offset="0.39" stop-color="#e0bff5"/>
      <stop offset="1" stop-color="#fff"/>
    </radialGradient>
    <linearGradient id="linear-gradient" x1="0.537" y1="0.919" x2="0.331" y2="0.074" gradientUnits="objectBoundingBox">
      <stop offset="0" stop-color="#cbc1f7"/>
      <stop offset="1" stop-color="#e8dcf7"/>
    </linearGradient>
    <linearGradient id="linear-gradient-2" x1="0.5" y1="1" x2="0.5" gradientUnits="objectBoundingBox">
      <stop offset="0" stop-color="#9d68c2"/>
      <stop offset="1" stop-color="#ccedff"/>
    </linearGradient>
    <linearGradient id="linear-gradient-3" x1="0.517" y1="1.014" x2="0.485" y2="-0.019" gradientUnits="objectBoundingBox">
      <stop offset="0" stop-color="#be9dea"/>
      <stop offset="1" stop-color="#9e8cef"/>
    </linearGradient>
    <linearGradient id="linear-gradient-4" x1="4.625" y1="1.777" x2="4.625" y2="0.453" gradientUnits="objectBoundingBox">
      <stop offset="0" stop-color="#45ffcd"/>
      <stop offset="1" stop-color="#22e0ff"/>
    </linearGradient>
    <linearGradient id="linear-gradient-5" x1="2.457" y1="2.054" x2="2.457" y2="0.335" gradientUnits="objectBoundingBox">
      <stop offset="0" stop-color="#b9acf4"/>
      <stop offset="1" stop-color="#e1d1f5"/>
    </linearGradient>
    <linearGradient id="linear-gradient-6" x1="0.87" y1="0.93" x2="0.758" y2="-0.055" xlink:href="#linear-gradient"/>
    <linearGradient id="linear-gradient-7" x1="1.566" y1="0.47" x2="0.482" y2="0.47" gradientUnits="objectBoundingBox">
      <stop offset="0" stop-color="#8879ea"/>
      <stop offset="1" stop-color="#9e8cef"/>
    </linearGradient>
    <linearGradient id="linear-gradient-8" x1="0.832" y1="0.847" x2="0.832" y2="-0.23" xlink:href="#linear-gradient-2"/>
    <linearGradient id="linear-gradient-9" x1="1.024" y1="0.708" x2="1.024" y2="0.194" gradientUnits="objectBoundingBox">
      <stop offset="0" stop-color="#8da4e5"/>
      <stop offset="1" stop-color="#755cbb"/>
    </linearGradient>
    <linearGradient id="linear-gradient-10" x1="1.096" y1="2.796" x2="1.071" y2="2.351" gradientUnits="objectBoundingBox">
      <stop offset="0" stop-color="#5e36cc"/>
      <stop offset="1" stop-color="#6c4a96"/>
    </linearGradient>
    <linearGradient id="linear-gradient-11" x1="1.149" y1="1.015" x2="1.149" y2="-0.04" gradientUnits="objectBoundingBox">
      <stop offset="0" stop-color="#0665bd"/>
      <stop offset="1" stop-color="#1a1f77"/>
    </linearGradient>
    <linearGradient id="linear-gradient-12" x1="-1.05" y1="0.325" x2="-1.05" y2="-0.712" xlink:href="#linear-gradient-5"/>
    <linearGradient id="linear-gradient-13" x1="-1.307" y1="0.276" x2="-1.307" y2="-0.837" xlink:href="#linear-gradient-3"/>
    <linearGradient id="linear-gradient-14" x1="-1.292" y1="0.248" x2="-1.292" y2="-0.812" xlink:href="#linear-gradient-4"/>
    <linearGradient id="linear-gradient-15" x1="1.785" y1="0.313" x2="0.701" y2="0.313" gradientUnits="objectBoundingBox">
      <stop offset="0"/>
      <stop offset="1" stop-color="#6a9bff"/>
    </linearGradient>
    <linearGradient id="linear-gradient-16" x1="2.77" y1="0.89" x2="1.678" y2="0.89" xlink:href="#linear-gradient-15"/>
    <linearGradient id="linear-gradient-17" x1="6.533" y1="2.184" x2="6.533" y2="0.86" xlink:href="#linear-gradient-15"/>
    <linearGradient id="linear-gradient-18" x1="-1.98" y1="-0.853" x2="-1.98" y2="-1.612" gradientUnits="objectBoundingBox">
      <stop offset="0" stop-color="#d4e2ff"/>
      <stop offset="1"/>
    </linearGradient>
    <linearGradient id="linear-gradient-19" x1="-1.84" y1="-1.581" x2="-2.933" y2="-1.581" gradientUnits="objectBoundingBox">
      <stop offset="0"/>
      <stop offset="1" stop-color="#d4e2ff"/>
    </linearGradient>
    <linearGradient id="linear-gradient-20" x1="1.259" y1="1.002" x2="1.071" y2="0.007" xlink:href="#linear-gradient"/>
    <linearGradient id="linear-gradient-21" x1="0.95" y1="1" x2="0.95" y2="0.031" xlink:href="#linear-gradient-2"/>
    <linearGradient id="linear-gradient-22" x1="2.791" y1="0.483" x2="1.497" y2="0.483" xlink:href="#linear-gradient-3"/>
    <radialGradient id="radial-gradient-2" cx="0.581" cy="0.855" r="0.475" gradientTransform="matrix(1.547, -0.093, 0.192, 1.327, 3.424, -0.381)" xlink:href="#linear-gradient-4"/>
    <linearGradient id="linear-gradient-23" x1="1.748" y1="0.968" x2="1.748" y2="0.044" xlink:href="#linear-gradient-9"/>
    <linearGradient id="linear-gradient-24" x1="3.296" y1="0.461" x2="1.978" y2="0.461" xlink:href="#linear-gradient-19"/>
    <linearGradient id="linear-gradient-25" x1="4.184" y1="0.835" x2="4.184" y2="-0.241" xlink:href="#linear-gradient-18"/>
    <linearGradient id="linear-gradient-26" x1="0.052" y1="0.517" x2="0.955" y2="0.48" xlink:href="#linear-gradient-7"/>
    <linearGradient id="linear-gradient-27" x1="0.5" y1="1" x2="0.5" y2="0" xlink:href="#linear-gradient-9"/>
    <linearGradient id="linear-gradient-28" x1="0.852" y1="0.953" x2="0.377" y2="0.037" xlink:href="#linear-gradient"/>
    <linearGradient id="linear-gradient-29" x1="0.618" y1="1.149" x2="0.397" y2="-0.148" xlink:href="#linear-gradient"/>
    <linearGradient id="linear-gradient-30" x1="0.006" y1="0.53" x2="0.967" y2="0.472" xlink:href="#linear-gradient-7"/>
    <linearGradient id="linear-gradient-31" x1="0.608" y1="1.035" x2="0.405" y2="-0.044" gradientUnits="objectBoundingBox">
      <stop offset="0" stop-color="#55e9ff"/>
      <stop offset="1" stop-color="#6024da"/>
    </linearGradient>
    <linearGradient id="linear-gradient-32" x1="0.262" y1="0.983" x2="0.689" y2="0.011" gradientUnits="objectBoundingBox">
      <stop offset="0" stop-color="#1ff5ff"/>
      <stop offset="1" stop-color="#6024da"/>
    </linearGradient>
    <linearGradient id="linear-gradient-33" x1="0.482" y1="0.734" x2="0.518" y2="0.266" gradientUnits="objectBoundingBox">
      <stop offset="0" stop-color="#6024da"/>
      <stop offset="1" stop-color="#5ff3ff"/>
    </linearGradient>
    <linearGradient id="linear-gradient-34" x1="0.45" y1="0.909" x2="0.613" y2="-0.027" xlink:href="#linear-gradient-4"/>
    <linearGradient id="linear-gradient-35" x1="0.5" y1="1" x2="0.5" y2="0" xlink:href="#linear-gradient-2"/>
    <linearGradient id="linear-gradient-36" x1="0.445" y1="0.88" x2="0.568" y2="-0.023" xlink:href="#linear-gradient-4"/>
    <radialGradient id="radial-gradient-3" cx="0.5" cy="0.5" r="0.377" gradientTransform="matrix(-2.688, 0, 0, 1, 1.844, 0)" xlink:href="#linear-gradient-4"/>
    <linearGradient id="linear-gradient-37" x1="0.501" y1="1" x2="0.501" y2="0" xlink:href="#linear-gradient-2"/>
    <linearGradient id="linear-gradient-38" x1="0.601" y1="1.035" x2="0.468" y2="0.141" xlink:href="#linear-gradient-2"/>
    <linearGradient id="linear-gradient-39" x1="0.5" y1="1.001" x2="0.5" y2="0" xlink:href="#linear-gradient-2"/>
    <linearGradient id="linear-gradient-40" x1="0.631" y1="1.04" x2="0.36" y2="-0.076" xlink:href="#linear-gradient"/>
    <linearGradient id="linear-gradient-41" x1="0.072" y1="-0.124" x2="0.979" y2="1.052" xlink:href="#linear-gradient-3"/>
    <linearGradient id="linear-gradient-42" x1="0.676" y1="1.067" x2="0.294" y2="-0.028" xlink:href="#linear-gradient"/>
    <linearGradient id="linear-gradient-43" x1="0.171" y1="-0.029" x2="1.008" y2="0.979" xlink:href="#linear-gradient-9"/>
    <linearGradient id="linear-gradient-44" x1="0.182" y1="0.586" x2="0.182" y2="-0.331" xlink:href="#linear-gradient"/>
    <radialGradient id="radial-gradient-4" cx="0.5" cy="0.5" r="0.438" gradientTransform="matrix(-1.365, 0, 0, 1, 1.183, 0)" xlink:href="#linear-gradient-4"/>
    <linearGradient id="linear-gradient-45" x1="0.566" y1="0.722" x2="0.445" y2="-0.445" xlink:href="#linear-gradient-3"/>
    <linearGradient id="linear-gradient-46" x1="2.244" y1="-8.561" x2="2.244" y2="-9.296" gradientUnits="objectBoundingBox">
      <stop offset="0" stop-color="#6024da"/>
      <stop offset="1" stop-color="#7ff9ff"/>
    </linearGradient>
    <linearGradient id="linear-gradient-47" x1="0.834" y1="1.483" x2="0.834" y2="1.104" gradientUnits="objectBoundingBox">
      <stop offset="0.21" stop-color="#6024da"/>
      <stop offset="1" stop-color="#6af8ff"/>
    </linearGradient>
    <linearGradient id="linear-gradient-48" x1="-0.763" y1="-0.58" x2="-0.763" y2="-1.427" xlink:href="#linear-gradient"/>
    <linearGradient id="linear-gradient-49" x1="0.644" y1="1.03" x2="0.152" y2="0.007" xlink:href="#linear-gradient-2"/>
    <linearGradient id="linear-gradient-50" x1="1" y1="0.5" x2="0" y2="0.5" gradientUnits="objectBoundingBox">
      <stop offset="0" stop-color="#6024da"/>
      <stop offset="1" stop-color="#9295bb"/>
    </linearGradient>
  </defs>
  <g id="Camada_2" data-name="Camada 2" transform="translate(0 0)">
    <g id="chatbot">
      <ellipse id="Elipse_36" data-name="Elipse 36" cx="138.796" cy="30.904" rx="138.796" ry="30.904" transform="translate(260.778 644.518)" opacity="0.5" fill="url(#radial-gradient)"/>
      <path id="Caminho_1035" data-name="Caminho 1035" d="M433.261,537.917c-28.351,46.866-265.815,34.035-354.681-9.326S-3.1,176.259,39.031,120.509,331.257-27.646,441.293,32.835,471.006,475.735,433.261,537.917Z" transform="translate(179.475 31.384)" fill="rgba(229,246,255,0.27)"/>
      <path id="Caminho_1036" data-name="Caminho 1036" d="M233.44,45.058c-.238-22.872-65.756-51.5-95.3-43.769s-34.239,109.934,10.925,113.3S233.712,73.58,233.44,45.058Z" transform="translate(80.195 -0.002)" fill="#e5f6ff"/>
      <path id="Caminho_1037" data-name="Caminho 1037" d="M67.136,196.347c5.582-24.2-26.854-55.443-43.973-51.053s-36.52,85.088-10.449,87.062S63.461,212.445,67.136,196.347Z" transform="translate(639.094 348.21)" fill="#e5f6ff"/>
      <path id="Caminho_1038" data-name="Caminho 1038" d="M185.455,203.959s-72.053,31.21-85.394,18.583C85.766,208.928,134.1,145.35,149.752,145.35,172.862,145.35,187.974,194.565,185.455,203.959Z" transform="translate(189.476 349.345)" fill="url(#linear-gradient)"/>
      <path id="Caminho_1039" data-name="Caminho 1039" d="M119.935,148.862s22.123,17.766,19.434,33.559S99.31,220.812,99.31,220.812a432.252,432.252,0,0,0,62.08-18.107L123.952,147.16Z" transform="translate(207.483 353.696)" opacity="0.3" fill="url(#linear-gradient-2)"/>
      <path id="Caminho_1040" data-name="Caminho 1040" d="M194.962,136.15A367.75,367.75,0,0,1,91.8,62.94s-14.839,15.928-3.2,51.9c0,0,87.675,93.971,137.332,100.132s31.04-62.727,31.04-62.727S215.52,150.41,194.962,136.15Z" transform="translate(160.093 151.272)" fill="url(#linear-gradient-3)"/>
      <path id="Caminho_1041" data-name="Caminho 1041" d="M139.872,20.06S106.585,28.671,79.8,66.348s53.878,9.53,53.878,9.53Z" transform="translate(313.954 48.209)" fill="url(#linear-gradient-4)"/>
      <path id="Caminho_1042" data-name="Caminho 1042" d="M55.78,60.872S94.852,18.43,116.158,17.546s42.476,25.22,42.476,25.22Z" transform="translate(358.394 42.112)" fill="url(#linear-gradient-5)"/>
      <path id="Caminho_1043" data-name="Caminho 1043" d="M277.348,302.069C210.06,334.165,36.787,237.4,24.6,192.885a91.9,91.9,0,0,1,2.791-54.456h0C54.281,61.339,169.524-6.357,262.713,38.3c63.169,30.257,81.957,109.9,69.942,174.839C325.2,253.74,305.7,288.592,277.348,302.069Z" transform="translate(296.792 57.779)" fill="url(#linear-gradient-6)"/>
      <path id="Caminho_1044" data-name="Caminho 1044" d="M224.422,179.157A367.951,367.951,0,0,1,138.654,154c-42.408-19.23-70.555-37.779-84.509-52.312h0c-9.189-9.564-12.151-17.358-8.883-22.5,2.008-3.1,11.64-2.28,25.765,1.259C112.583,90.9,192.94,124.7,232.829,150.738c3.4,2.246,6.569,4.391,9.326,6.5.613.442,1.157.885,1.7,1.327l.34.238c6.569,5.173,10.789,9.768,11.878,13.614a6.093,6.093,0,0,1,.136,2.621C255.428,181.2,242.291,181.846,224.422,179.157Z" transform="translate(300.911 185.728)" fill="url(#linear-gradient-7)"/>
      <path id="Caminho_1045" data-name="Caminho 1045" d="M278.352,221.291c-67.288,32.1-240.561-64.667-252.745-109.185A91.9,91.9,0,0,1,28.4,57.65h0s1.361,29,35.873,50.032,143.56,64.054,172.456,57.86,53.946-83.216,53.946-83.216l42.986,50.032C326.206,172.961,306.7,207.813,278.352,221.291Z" transform="translate(295.787 138.557)" opacity="0.3" fill="url(#linear-gradient-8)"/>
      <path id="Caminho_1046" data-name="Caminho 1046" d="M224.309,179.133c-14.635-16.2-58.541-60.855-105.509-70.623C61.178,96.5,54.133,101.7,54.133,101.7h0c-9.19-9.564-12.151-17.358-8.883-22.5,2.008-3.1,11.64-2.28,25.765,1.259,41.557,10.449,121.914,44.246,161.8,70.283,4.118,2.825,7.794,5.446,11.027,7.828l.34.238c6.569,5.173,10.789,9.768,11.878,13.614a6.092,6.092,0,0,1,.034,2.587C255.315,181.175,242.177,181.822,224.309,179.133Z" transform="translate(301.025 185.752)" opacity="0.5" fill="url(#linear-gradient-9)"/>
      <path id="Caminho_1047" data-name="Caminho 1047" d="M219.225,155.007c-14.329,5-65.96-8.475-93.256-20.9C77.026,111.851,50.785,90.647,48.13,78.19,93.193,89.558,184.2,128.6,219.225,155.007Z" transform="translate(323.841 187.925)" fill="url(#linear-gradient-10)"/>
      <path id="Caminho_1048" data-name="Caminho 1048" d="M37.584,139.145C35.1,164.909,186.658,243.53,244.075,222.6s79.166-167.9-8.339-193.354C152.35,4.944,42.145,92.414,37.584,139.145Z" transform="translate(284.696 60.228)" fill="#dfe3fb"/>
      <path id="Caminho_1049" data-name="Caminho 1049" d="M36.989,138.2C34.5,164,186.029,242.59,243.447,221.659s79.132-167.9-8.373-193.354C151.654,4,41.482,91.474,36.989,138.2Z" transform="translate(287.366 57.968)" fill="url(#linear-gradient-11)"/>
      <path id="Caminho_1050" data-name="Caminho 1050" d="M24.932,49.772s-38.426,75.116-.749,121.233c0,0,22.77,11.572,42.033,2.416,0,0-29.168,12.048-43.837-17.63s13-85.53,37.371-97.885,47.377,2.11,47.377,2.11l-6.535-12.729S66.8,25.913,24.932,49.772Z" transform="translate(573.781 92.489)" fill="url(#linear-gradient-12)"/>
      <path id="Caminho_1051" data-name="Caminho 1051" d="M95.392,43.446S69.423,30.717,38.724,54.779C6.152,80.34-1.132,143.271,19.8,161.139s80.868-65.484,80.868-65.484V53.418A17.937,17.937,0,0,0,95.392,43.446Z" transform="translate(578.981 96.331)" fill="url(#linear-gradient-13)"/>
      <path id="Caminho_1052" data-name="Caminho 1052" d="M93.247,131.448C83.037,148.057,70.1,159.9,56.83,165.483h0l-3.642,1.361h0a37.881,37.881,0,0,1-30.393-2.28c-31.176-16.643-17.528-65.756-3.4-91.146,16.1-29.338,49.759-37.847,69.874-27.126C113.158,59.123,113.362,98.978,93.247,131.448Z" transform="translate(585.823 100.564)" fill="url(#linear-gradient-14)"/>
      <path id="Caminho_1053" data-name="Caminho 1053" d="M39.044,57.011c1.5,6.807,37.439,2.825,69.228,18.924s55.341,62.489,83.931,68.819C214.9,149.859,216.4,61.708,164.4,33.7S37.546,50.238,39.044,57.011Z" transform="translate(366.86 58.975)" opacity="0.5" fill="url(#linear-gradient-15)"/>
      <path id="Caminho_1054" data-name="Caminho 1054" d="M67.173,63.58a247.879,247.879,0,0,1,78.485,25.254c40.6,21.1,45.709,28.249,43.395,31.959s-36.384-.034-73.822-19.2S67.173,63.58,67.173,63.58Z" transform="translate(288.733 152.81)" opacity="0.5" fill="url(#linear-gradient-16)"/>
      <path id="Caminho_1055" data-name="Caminho 1055" d="M93.482,102.436s7.181-31.585,50.508-63.476c0,0,8.373-4.391,10.211-.987S116.966,61.594,93.482,102.436Z" transform="translate(234.448 88.155)" opacity="0.5" fill="url(#linear-gradient-17)"/>
      <path id="Caminho_1056" data-name="Caminho 1056" d="M14.291,62.84S6.7,93.267,25.658,107.63,67.9,113.212,81.68,93.472c0,0-13.852,16.269-39.855.851S14.291,62.84,14.291,62.84Z" transform="translate(581.666 151.031)" opacity="0.72" fill="url(#linear-gradient-18)"/>
      <path id="Caminho_1057" data-name="Caminho 1057" d="M4.618,56.395c-1.8,5.514,41.693,9.189,53.571,15.588s11.3,23.825,13.614,24.1S82.218,58.641,60.061,47.205,5.877,52.549,4.618,56.395Z" transform="translate(616.184 104.007)" opacity="0.72" fill="url(#linear-gradient-19)"/>
      <path id="Caminho_1058" data-name="Caminho 1058" d="M74.14,52.12s39.311,21.68,63.544,24.641c0,0-24.573,32.878-49.828,23.144S74.14,52.12,74.14,52.12Z" transform="translate(325.807 125.265)" fill="#2f95cd"/>
      <path id="Caminho_1059" data-name="Caminho 1059" d="M236.594,268.4c-7.113,55.443-36.179,81.684-91.9,85.769C89.97,358.284,51.1,302.024,62.572,230.89c7.318-45.437,17.018-85.973,37.983-112.554h0A80.9,80.9,0,0,1,149.09,88.385c16.575-3.4,31.244,4.288,43.667,18.583C225.056,144.135,242.006,225.683,236.594,268.4Z" transform="translate(263.179 210.506)" fill="url(#linear-gradient-20)"/>
      <path id="Caminho_1060" data-name="Caminho 1060" d="M69.922,114.67s34.035,56.635,34.035,85.088C104.536,296.452,60.6,320.548,60.6,320.548s39.243-3,55.579-17.426c17.834-15.758,40.842-44.246,36.86-103.909C149.633,152.278,126.9,101.6,126.9,101.6Z" transform="translate(347.145 244.192)" opacity="0.3" fill="url(#linear-gradient-21)"/>
      <path id="Caminho_1061" data-name="Caminho 1061" d="M82.958,161.493s5.888-41.931,35.431-44.552c35.4-3.165,63.884,46.764,65.041,82.229s-4.152,69.3-37.439,73.652C145.821,272.856,83.026,276.566,82.958,161.493Z" transform="translate(240.955 280.72)" fill="url(#linear-gradient-22)"/>
      <path id="Caminho_1062" data-name="Caminho 1062" d="M82.776,162.985s5.888-41.931,35.431-44.586c35.4-3.131,63.884,46.8,64.905,82.3s-4.152,69.262-37.439,73.652C145.639,274.348,82.844,278.024,82.776,162.985Z" transform="translate(241.92 284.231)" fill="url(#radial-gradient-2)"/>
      <path id="Caminho_1063" data-name="Caminho 1063" d="M167.526,106.792s-55.648,26.82-77.941,26.275c-21.646-.476-14.737-14.057-14.329-14.805h0a81.072,81.072,0,0,1,48.568-29.951C140.4,84.737,155.1,92.5,167.526,106.792Z" transform="translate(287.865 210.172)" opacity="0.5" fill="url(#linear-gradient-23)"/>
      <path id="Caminho_1064" data-name="Caminho 1064" d="M87.52,155.764c5.48,10.925,20.8-5.037,41.8-3.71S162.738,167,168.354,162.468s-16.813-44.246-48.806-42.884C94.021,120.5,85.683,152.054,87.52,155.764Z" transform="translate(240.613 287.335)" opacity="0.72" fill="url(#linear-gradient-24)"/>
      <path id="Caminho_1065" data-name="Caminho 1065" d="M89.28,160.68a33.456,33.456,0,0,0,24.165,10.211c14.465-.613,18.413-10.211,18.413-10.211a22.94,22.94,0,0,0-16.609.408,34.75,34.75,0,0,1-25.969-.408Z" transform="translate(271.153 382.924)" opacity="0.72" fill="url(#linear-gradient-25)"/>
      <path id="Caminho_1066" data-name="Caminho 1066" d="M87.11,104.013c-3.4.408-6.3,33.457-3.4,34.307s5.786-6.4,7.488-17.29S90.343,103.6,87.11,104.013Z" transform="translate(334.28 249.947)" fill="#fff"/>
      <path id="Caminho_1067" data-name="Caminho 1067" d="M68.073,138.262c3.574,18.073,13.614,38.085,22.123,46.594a10.891,10.891,0,0,0,8.236,4.22c9.19-1.4,14.737-27.024,2.212-58.3C90.434,105.01,76.581,94.97,71.442,96.739c-2.348.817-4.935,4.391-5.752,12.253A99.69,99.69,0,0,0,68.073,138.262Z" transform="translate(376.121 232.035)" fill="url(#linear-gradient-26)"/>
      <path id="Caminho_1068" data-name="Caminho 1068" d="M72.725,129.47c3.574,18.073,13.614,38.085,22.123,46.594,0,0,12.048-60.072-24.505-75.864a99.688,99.688,0,0,0,2.382,29.27Z" transform="translate(371.469 240.827)" fill="#6340a2"/>
      <path id="Caminho_1069" data-name="Caminho 1069" d="M195.113,144.852s-45.165,19.5-84.407,10.687-38.051-35.363-38.051-35.363l2.893-9.666Z" transform="translate(264.499 265.607)" opacity="0.5" fill="url(#linear-gradient-27)"/>
      <path id="Caminho_1070" data-name="Caminho 1070" d="M56.683,185.792s11.946,98.294,36.962,105.986a9.528,9.528,0,0,0,1.906.408c20.013,2.348,43.055-96.013,39.685-130.389a23.382,23.382,0,0,0-9.326-18.141C108.008,131.506,70.229,149.646,56.683,185.792Z" transform="translate(378.389 336.234)" fill="url(#linear-gradient-28)"/>
      <path id="Caminho_1071" data-name="Caminho 1071" d="M72.322,126.58h0c102.31,86.109,200.433,87.607,200.433,87.607,11.2-21.306,6.194-71.746-5.105-78.86a4.22,4.22,0,0,0-1.668-.715h0c-63.544-14.261-126.747-34.1-160.2-44.892h-.272c-12.117-3.982-20.421-6.807-23.076-7.726l-1.055-.374H81a9.8,9.8,0,0,0-4.22,2.757h0C67.115,94.621,72.016,124.606,72.322,126.58Z" transform="translate(186.822 196.169)" fill="url(#linear-gradient-29)"/>
      <path id="Caminho_1072" data-name="Caminho 1072" d="M135.128,81.55s21.1,16.779,22.4,37.132-22.906,16.235-31.449,8.168C126.074,126.851,113.141,88.153,135.128,81.55Z" transform="translate(133.07 196.001)" fill="url(#linear-gradient-30)"/>
      <path id="Caminho_1073" data-name="Caminho 1073" d="M123.36,180.983s1.191,2.655,3.4,6.807c13.614,24.914,39.991,50.542,41.285,51.768h0c84.271,35.4,177.289,52.857,177.289,52.857,43.667-79.03,64.02-176.336,65.041-181.373v-.2c-118.17-66.845-227.73-89.07-231.133-89.717h0l-.272.476A225.712,225.712,0,0,0,165.36,47.974v.374a742.51,742.51,0,0,0-30.87,89.989c-6.433,22.735-10.449,39.753-11.061,42.272a2.253,2.253,0,0,1-.068.374Z" transform="translate(-123.36 50.756)" fill="url(#linear-gradient-31)"/>
      <path id="Caminho_1074" data-name="Caminho 1074" d="M178.64,180.911s1.191,2.655,3.4,6.807c6.5,12.729,21.953,39.617,41.285,51.768h0S249.059,128.8,277.512,56.036L234.594,21.15h0l-.272.476C233.1,23.839,227.821,33.3,220.708,48v.374a544.558,544.558,0,0,0-31.176,83.08A398.906,398.906,0,0,0,178.708,180.6a2.25,2.25,0,0,1-.068.306Z" transform="translate(-178.64 50.829)" fill="url(#linear-gradient-32)"/>
      <path id="Caminho_1075" data-name="Caminho 1075" d="M354.551,110.867S242.882,67.778,166.336,56.036L123.35,21.15S282.226,51.271,354.551,110.867Z" transform="translate(-67.498 50.829)" fill="url(#linear-gradient-33)"/>
      <path id="Caminho_1076" data-name="Caminho 1076" d="M120.573,69.057c5.82-.272,8.339-27.909-2.008-32.878s-31.517,8.339-32.4,18.311c-.408,4.425,11.232,3.4,16.337,6.024C108.8,63.816,115.2,69.3,120.573,69.057Z" transform="translate(288.019 84.367)" fill="url(#linear-gradient-34)"/>
      <path id="Caminho_1077" data-name="Caminho 1077" d="M223.523,152.286,216,155.961l-27.637-28.419-25.254-12.8,12.9-7.318L260.723,52.12l25.356,20.8Z" transform="translate(-134.35 125.265)" opacity="0.5" fill="url(#linear-gradient-35)"/>
      <path id="Caminho_1078" data-name="Caminho 1078" d="M44.287,65.488c-4.935-8.815,45.3-27.6,63.782-11.708s9.292,38.392.987,43.531c-4.833,3-16.575-11.164-33.389-18.175C60.25,72.772,47.01,70.321,44.287,65.488Z" transform="translate(438.468 114.416)" fill="url(#linear-gradient-36)"/>
      <path id="Caminho_1079" data-name="Caminho 1079" d="M154.372,256.161s63.714-85.9,77.668-186.241c0,0-24.812-17.018-67.356-40.842L156.72,26.73l57.485,37.779s-11.844,87.675-67.526,190.6Z" transform="translate(-24.391 64.24)" fill="url(#radial-gradient-3)"/>
      <path id="Caminho_1080" data-name="Caminho 1080" d="M59.55,185.78S71.5,284.073,96.512,291.765c-21.442-18.958-34.852-95.3,0-138.9,9.768-12.253,25.935-10.211,32.163-9.19C110.875,131.494,73.1,149.634,59.55,185.78Z" transform="translate(375.522 336.246)" opacity="0.3" fill="url(#linear-gradient-37)"/>
      <path id="Caminho_1081" data-name="Caminho 1081" d="M123.36,176.087c84.271,35.4,177.289,52.857,177.289,52.857,43.667-79.03,64.02-176.336,65.041-181.374-1.225,4.322-21.034,73.482-41.965,82.569-21.612,9.394-62.931,4.357-62.931,4.357A221.229,221.229,0,0,1,185.27,168.8C142.284,178.537,123.36,176.087,123.36,176.087Z" transform="translate(-78.672 114.329)" opacity="0.5" fill="url(#linear-gradient-38)"/>
      <path id="Caminho_1082" data-name="Caminho 1082" d="M76.329,126.773h0c102.31,86.109,200.433,87.607,200.433,87.607,11.2-21.306,6.194-71.746-5.105-78.86l-1.668-.715c.919,1.429,22.429,34.954,2.042,55.579S142.7,163.871,123.944,130.449s-12.423-40.2-12.423-40.2l-1.77-.613h-.272L86.4,81.914l-1.055-.374h-.374a24.335,24.335,0,0,0-4.22,2.757C74.252,89.913,64.586,102.4,76.329,126.773Z" transform="translate(182.816 195.977)" opacity="0.3" fill="url(#linear-gradient-39)"/>
      <path id="Caminho_1083" data-name="Caminho 1083" d="M223.843,137.243c2.859,21.034-31.857,28.964-56.362,14.907a91.01,91.01,0,0,1-40.4-45.233c-5.582-13.1,2.144-33.729,7.318-36.758s54.763,15.963,63.2,20.217C223.843,103.617,222.175,124.855,223.843,137.243Z" transform="translate(56.948 167.842)" fill="url(#linear-gradient-40)"/>
      <path id="Caminho_1084" data-name="Caminho 1084" d="M214.4,119.684s-63.135-15.078-88.492-47.649c0,0,1.089-4.527,11.946-1.4L193.13,90.856S213.585,105.934,214.4,119.684Z" transform="translate(63.938 167.125)" fill="url(#linear-gradient-41)"/>
      <path id="Caminho_1085" data-name="Caminho 1085" d="M172.858,125.566a77.5,77.5,0,0,0-5.65-26.071A72.937,72.937,0,0,0,134.024,65.46a26.887,26.887,0,0,0-7.352,13.1c-1.293,7.42,15.248,35.6,15.248,35.6S157.508,125.941,172.858,125.566Z" transform="translate(103.134 157.328)" fill="url(#linear-gradient-42)"/>
      <path id="Caminho_1086" data-name="Caminho 1086" d="M159.242,73.6,135.69,81.02a109.255,109.255,0,0,0,34.478,13.614Z" transform="translate(74.886 176.893)" opacity="0.5" fill="url(#linear-gradient-43)"/>
      <path id="Caminho_1087" data-name="Caminho 1087" d="M229.723,48l24.607,5.922,21.646,22.157,6.6,26-65.892,64.667L160.7,113.892Zm17.018,37.745a9.782,9.782,0,1,0,0,.1Z" transform="translate(-122.649 115.363)" fill="url(#linear-gradient-44)"/>
      <path id="Caminho_1088" data-name="Caminho 1088" d="M206.58,46.208s-30.9,45.165-49.215,62.761l-5.446-6.228s27.16-15.078,52.108-57.247L188.235,34.33S206.852,44.438,206.58,46.208Z" transform="translate(-16.765 82.507)" fill="url(#radial-gradient-4)"/>
      <path id="Caminho_1089" data-name="Caminho 1089" d="M71.371,156.291c3.71-.817,4.595,32.265,0,35.26S65.653,157.584,71.371,156.291Z" transform="translate(402.671 375.605)" fill="#fff"/>
      <path id="Caminho_1090" data-name="Caminho 1090" d="M106.525,106.792c-.647,4.22-27.228-.613-27.228-6.126S107.172,102.572,106.525,106.792Z" transform="translate(330.453 237.229)" fill="#fff"/>
      <path id="Caminho_1091" data-name="Caminho 1091" d="M100.468,101.333c.817-1.8-9.836-4.663-11.436-3.4s2.417,3.88,5,4.833A5.616,5.616,0,0,0,100.468,101.333Z" transform="translate(304.585 234.622)" fill="#fff"/>
      <path id="Caminho_1092" data-name="Caminho 1092" d="M138.147,85.121c4.969.579-4.254-14.6-7.284-14.6S134.505,84.679,138.147,85.121Z" transform="translate(124.503 169.49)" fill="#fff"/>
      <path id="Caminho_1093" data-name="Caminho 1093" d="M122.688,153.143c2.212.885-4.152,12.7-7.76,10.211S116.732,150.828,122.688,153.143Z" transform="translate(196.528 367.249)" fill="#fff"/>
      <path id="Caminho_1094" data-name="Caminho 1094" d="M156.19,68.42s-16.269-1.906-22.327,19.672c0,0,2.076,47.649-28.011,71.474-25.56,20.421-88.015-37.439-88.015-37.439L15.25,133.359s48.568,48.772,79.983,51.631c0,0,21.612.2,39.243-40.3A300.8,300.8,0,0,0,156.19,68.42Z" transform="translate(498.784 164.34)" fill="url(#linear-gradient-45)"/>
      <path id="Caminho_1095" data-name="Caminho 1095" d="M110.136,116.908c.442,12.219-19.2,9.019-31.074,1.225C65.72,109.421,47.953,86.685,59.423,75.419S109.251,88.251,110.136,116.908Z" transform="translate(407.029 174.461)" fill="url(#linear-gradient-46)"/>
      <path id="Caminho_1096" data-name="Caminho 1096" d="M96.376,116.26c-1.293,2.314-45.4-33.15-40.059-41.727S106.314,98.29,96.376,116.26Z" transform="translate(418.917 175.722)" fill="url(#linear-gradient-47)"/>
      <path id="Caminho_1097" data-name="Caminho 1097" d="M33.584,77.15S21.127,122.587,18,122.383,29.5,77.558,33.584,77.15Z" transform="translate(613.527 185.426)" fill="url(#linear-gradient-48)"/>
      <path id="Caminho_1098" data-name="Caminho 1098" d="M194.56,103.013s1.191,2.655,3.4,6.807c6.5,12.729,21.953,39.617,41.285,51.768-.953-1.736-30.325-54.933-33.525-101.221-.2-2.314-.272-4.629-.306-6.807a398.9,398.9,0,0,0-10.789,49.147,2.242,2.242,0,0,1-.068.306Z" transform="translate(-194.56 128.727)" opacity="0.3" fill="url(#linear-gradient-49)"/>
      <path id="Caminho_1099" data-name="Caminho 1099" d="M354.6,111.071S226.18,61.482,184.419,48.582,123.36,21.15,123.36,21.15l43.055,34.886S283.8,78.669,354.6,111.071Z" transform="translate(-67.576 50.829)" opacity="0.72" fill="url(#linear-gradient-50)"/>
    </g>
  </g>
</svg>
