<?xml version="1.0" encoding="UTF-8"?>
<!DOCTYPE svg PUBLIC "-//W3C//DTD SVG 1.1//EN" "http://www.w3.org/Graphics/SVG/1.1/DTD/svg11.dtd">
<!-- Creator: CorelDRAW 2020 (64 Bit) -->
<svg xmlns="http://www.w3.org/2000/svg" xml:space="preserve" width="196.683mm" height="97.483mm" version="1.1" style="shape-rendering:geometricPrecision; text-rendering:geometricPrecision; image-rendering:optimizeQuality; fill-rule:evenodd; clip-rule:evenodd"
viewBox="0 0 8145.19 4037.05"
 xmlns:xlink="http://www.w3.org/1999/xlink"
 xmlns:xodm="http://www.corel.com/coreldraw/odm/2003"
 xmlns:svg="http://www.w3.org/2000/svg">
 <defs>
  <style type="text/css">
   <![CDATA[
    .fil1 {fill:white}
    .fil0 {fill:#014185;fill-rule:nonzero}
   ]]>
  </style>
 </defs>
 <g id="Camada_x0020_1">
  <metadata id="CorelCorpID_0Corel-Layer"/>
  <g id="_1521436879216">
   <g id="layer1">
    <polygon id="path25030" class="fil0" points="-0,4030.99 4112.44,4030.99 8145.19,0 -0,0 "/>
    <path id="path25032" class="fil1" d="M4829.73 757.62l-796.98 -0.16 0 1906.71 -701.35 -1906.71 -685.41 0 -605.71 1594.61c-63.76,-401.68 -478.19,-540.52 -812.93,-644.44 -207.21,-69.82 -446.31,-172.47 -430.37,-284.68 0,-93.09 111.58,-178.52 350.67,-165.77 159.4,8.13 302.86,21.36 589.77,158.12l286.92 -485.69c-270.98,-131.34 -621.65,-214.39 -908.57,-214.71l0 0c-350.67,0 -637.58,110.3 -812.92,293.13 -111.58,127.2 -191.28,288.67 -191.28,467.67 0,246.27 95.64,420.97 270.98,560.12 175.33,117.16 366.61,193.51 557.89,249.46 223.15,69.02 398.49,128.79 398.49,256.95 0,47.34 -15.94,90.38 -47.82,124.97 -63.76,57.22 -143.46,78.9 -270.97,81.61 -223.16,4.14 -382.56,-31.4 -653.53,-189.68l-255.04 491.74c270.98,152.38 589.77,241.96 908.57,241.96l47.82 -0.32c270.97,-5.1 510.07,-85.6 685.4,-231.92 15.94,-8.61 15.94,-16.58 31.88,-24.55l-79.7 214.07 733.23 0 111.58 -371.08c127.52,42.72 270.98,67.58 430.37,67.58 159.4,0 286.92,-24.07 414.44,-64.55l127.51 368.05 1179.54 0 0 -769.73 270.98 0c621.65,0 988.26,-318.95 988.26,-853.89 0,-595.51 -350.67,-868.88 -1131.72,-868.88zm-1849.01 1632.38c-95.63,0 -175.33,-16.58 -255.03,-45.59l255.03 -802.08 0 0 255.04 804.64c-79.7,27.42 -159.4,43.04 -255.04,43.04zm1896.83 -461.29l-175.34 0 0 -646.67 175.34 0c239.1,0 430.37,78.27 430.37,320.07 0,248.66 -191.27,326.6 -430.37,326.6z"/>
    <path id="path25034" class="fil0" d="M5116.65 3773.41c0,-123.22 95.64,-217.1 207.21,-217.1 111.58,0 207.22,93.88 207.22,217.1 0,127.83 -95.64,219.97 -207.22,219.97 -111.57,0 -207.21,-92.14 -207.21,-219.97zm207.21 263.64c143.46,0 270.98,-111.74 270.98,-263.64 0,-149.67 -127.52,-259.66 -270.98,-259.66 -143.45,0 -270.97,109.98 -270.97,259.66 0,151.9 127.52,263.64 270.97,263.64zm-47.82 -241.81l47.82 0 79.7 130.07 47.82 0 -79.7 -132.62c31.88,-5.42 79.7,-28.85 79.7,-82.41 0,-60.09 -47.82,-86.55 -111.58,-86.55l-111.57 0 0 301.58 47.82 0 0 -130.07zm0 -38.89l0 -94.2 63.76 0c15.94,0 63.76,7.33 63.76,45.43 0,45.75 -47.82,48.78 -79.7,48.78l-47.82 0z"/>
   </g>
  </g>
 </g>
</svg>
