<?xml version="1.0" encoding="UTF-8"?>
<!DOCTYPE svg PUBLIC "-//W3C//DTD SVG 1.1//EN" "http://www.w3.org/Graphics/SVG/1.1/DTD/svg11.dtd">
<!-- Creator: CorelDRAW 2020 (64 Bit) -->
<svg xmlns="http://www.w3.org/2000/svg" xml:space="preserve" width="116.84mm" height="104.055mm" version="1.1" style="shape-rendering:geometricPrecision; text-rendering:geometricPrecision; image-rendering:optimizeQuality; fill-rule:evenodd; clip-rule:evenodd"
viewBox="0 0 2911.32 2592.75"
 xmlns:xlink="http://www.w3.org/1999/xlink"
 xmlns:xodm="http://www.corel.com/coreldraw/odm/2003">
 <defs>
  <style type="text/css">
   <![CDATA[
    .fil0 {fill:url(#id0)}
   ]]>
  </style>
  <linearGradient id="id0" gradientUnits="userSpaceOnUse" x1="-0" y1="1296.38" x2="2911.32" y2="1296.38">
   <stop offset="0" style="stop-opacity:1; stop-color:#6F059A"/>
   <stop offset="1" style="stop-opacity:1; stop-color:#16D3D3"/>
  </linearGradient>
 </defs>
 <g id="Camada_x0020_1">
  <metadata id="CorelCorpID_0Corel-Layer"/>
  <path class="fil0" d="M1857.97 1348.12c-85.91,-1.42 -145.24,17.2 -174.92,-52.55 35.76,-76.83 96.18,-52.78 174.92,-53.79l508.73 1.34c158.88,0.07 337.39,25.34 460.5,-98.37 46.59,-46.82 86.51,-122.73 83.89,-213.98 -4.98,-173.07 -136.52,-287 -308.66,-298.35 -175.21,0.61 -286.89,135.22 -299.35,306.55l193.35 -2.32c34.48,-59.34 24.88,-96.61 113.56,-101.14 118.17,18.02 155.14,166.92 -5.01,203.56l-95.74 3.38 -566.77 -1.26 408.6 -428.1c53.04,-53.13 145.91,-129.31 172.11,-224.98 68.99,-251.97 -202.47,-434.12 -370.92,-377.86 -201.35,67.25 -295.97,315.17 -150.81,499.07 48.02,-14.03 106.96,-85.71 143.36,-117.73 -19.8,-77.48 -22.5,-64.95 5.92,-165.58 121.15,-65.06 223.36,34.18 165.07,121.61l-615.03 647.21c-15.86,19.11 -138.69,136.39 -167.74,150.08l-73.25 -62.31 293.56 -320.98c47.48,-51.37 97.04,-101 106.69,-204.06 27.6,-294.79 -320.38,-425.98 -509.12,-253.96 -108.3,98.71 -138.16,339.85 -7.28,433.54l126.64 -115.83c-4.81,-80.34 -34.72,-174.9 63.5,-191.06 82.75,-13.62 150.52,49.55 117.13,133.34 -8.88,22.29 -294.4,336.23 -340.18,362.2 -42.08,-17.66 -162.14,-146.93 -227.91,-196.12 -194.57,-145.53 -467.59,-155.66 -700,-62.71 -606.51,242.58 -495.36,1383.52 355.17,1322.71 64.62,-4.62 202.38,-32.2 242.7,-65.95 64.02,-23.99 134.38,-86.24 168.33,-123.07 31.68,-34.37 115.18,-115.7 161.71,-134.88 66.51,33.97 340.35,339.46 347.42,385.98 12.05,79.36 -63.54,135.85 -142.51,102.98 -86.81,-36.14 -48.82,-103.97 -37.86,-186.18 -36.53,-26.36 -99.25,-101.95 -135,-116.15 -49.05,53.88 -88.64,100.51 -84.97,213.15 11.57,355.05 428.62,341.12 532.51,201.89 116.59,-156.26 84.74,-299.04 -30.35,-428.63 -24.5,-27.59 -43.21,-54.65 -71.04,-79.99 -63.71,-57.99 -191.71,-177.1 -229.02,-240.96 16.89,-35.46 38.2,-55.5 73.12,-73l692.96 684.78 99.71 128.17c29.92,74.09 -29.31,118.63 -83.67,133.39 -45.57,1.83 -75.7,-5.8 -95.11,-42.11 -25.26,-47.28 -4.78,-79.37 -0.12,-122.04 3.34,-30.63 -35.43,-57.37 -54.49,-77.61 -13.39,-14.23 -21.33,-22.71 -34.43,-36.98 -18.38,-20.03 -17.1,-22.63 -40.56,-33.05 -88.35,46.1 -112.56,225.88 -61.41,341.59 42.27,95.63 141.2,170.94 281.78,171.76 176.45,-12.3 330.31,-159.66 289.32,-362.55 -19.96,-98.79 -79.67,-155.31 -127.63,-205.3l-456.9 -476.28 582.91 -0.52 77.02 3.08c158.07,28.44 136.13,196.82 0,203.69 -82.56,-11.07 -70.21,-46.18 -106.37,-97.67l-189.88 -3.42c-1.72,170.72 128.66,296.8 296.25,303.25 165.83,-6.94 293.2,-120.1 307.7,-280.02 8.38,-92.45 -28.71,-172.63 -73.16,-224.43 -112.97,-131.67 -316.44,-105.13 -470.27,-105.56l-508.73 1.09zm-1085.5 -540.03c167.02,27.28 312.44,142.86 413.79,273.12l-66.09 69.49c-102.17,-103.49 -152.73,-239.35 -404.08,-215.88 -482.27,57.71 -435.75,747.19 56.83,732.61 221.35,-24.97 259.8,-109.23 349.01,-216.58l63.55 59.09c-80.73,135.05 -290.3,284.09 -446.23,288.94 -162.52,5.06 -333.28,-67.92 -430.01,-200.56 -103.57,-142.02 -125.09,-326.29 -59.9,-490.84 83.06,-209.7 306.34,-334.8 523.13,-299.39zm0.27 328.55c80.04,21.11 145.88,106.45 196.54,158.12 -32.23,45.82 -122.92,144.96 -189,167.98 -113.87,16.52 -195.07,-40.98 -200.29,-151.41 -5.71,-120.86 72.68,-185.13 192.74,-174.7zm599.95 52.87l95 95.14c-18.32,42.41 -52.37,56.22 -75.67,89.25l-66.81 61.82c-33.61,-35.81 -122.3,-107.68 -141,-151.23l135.29 -131.85c34.7,11.45 25.23,17.69 53.19,36.87z"/>
 </g>
</svg>
