<?xml version="1.0" encoding="UTF-8"?>
<!DOCTYPE svg PUBLIC "-//W3C//DTD SVG 1.1//EN" "http://www.w3.org/Graphics/SVG/1.1/DTD/svg11.dtd">
<!-- Creator: CorelDRAW 2020 (64 Bit) -->
<svg xmlns="http://www.w3.org/2000/svg" xml:space="preserve" width="135.454mm" height="36.6012mm" version="1.1" style="shape-rendering:geometricPrecision; text-rendering:geometricPrecision; image-rendering:optimizeQuality; fill-rule:evenodd; clip-rule:evenodd"
viewBox="0 0 585215.54 158132.31"
 xmlns:xlink="http://www.w3.org/1999/xlink"
 xmlns:xodm="http://www.corel.com/coreldraw/odm/2003">
 <defs>
  <style type="text/css">
   <![CDATA[
    .fil0 {fill:#E81B5C}
   ]]>
  </style>
 </defs>
 <g id="Camada_x0020_1">
  <metadata id="CorelCorpID_0Corel-Layer"/>
  <path class="fil0" d="M434369.61 158077.88l11279.3 -22.03 95.91 -145695.14c18273.62,-2130.4 58010.62,-840.32 78538.2,-821.31 27797.54,-11.67 50035.57,11019.65 49156.37,39826.43 -1401.97,45932.47 -56719.25,36857.45 -85086.22,38596.84l-216.02 9958.98c38634.86,4560.63 94744.07,29.38 96991.12,-47137.44 2970.72,-62349.18 -70905.76,-52172.45 -114190.25,-52160.78l-36572.73 137.82 4.32 157316.62zm-38705.29 -34.56l11394.23 89 -22210.38 -38783.49 -12399.15 -79.5 23215.31 38773.98zm-353399.44 -69685.68l56643.21 82.09 -107.15 -10718.95 -56288.94 -297.68 -247.13 10934.53zm133575.08 -87054.6l-8852.09 -77.77 -699.47 156820.2 10296.41 0.43 -744.84 -156742.87zm-165624.34 156741.14l164.61 -145948.75 119443.44 86.84 58.76 -9596.5 -129882.43 464.01 216.88 154994.83 9998.73 -0.43zm195739.78 -0.43l12746.95 -50.55c9556.75,-15327.96 82405.84,-138208.73 87627.92,-143475.74l47248.47 74727.17 12343.42 460.12 -53939.06 -89545.32 -10834.3 95.48 -95193.4 157788.84z"/>
 </g>
</svg>
