<?xml version="1.0" encoding="UTF-8"?>
<!DOCTYPE svg PUBLIC "-//W3C//DTD SVG 1.1//EN" "http://www.w3.org/Graphics/SVG/1.1/DTD/svg11.dtd">
<!-- Creator: CorelDRAW 2020 (64 Bit) -->
<svg xmlns="http://www.w3.org/2000/svg" xml:space="preserve" width="153.985mm" height="38.1103mm" version="1.1" style="shape-rendering:geometricPrecision; text-rendering:geometricPrecision; image-rendering:optimizeQuality; fill-rule:evenodd; clip-rule:evenodd"
viewBox="0 0 422196.15 104490.84"
 xmlns:xlink="http://www.w3.org/1999/xlink"
 xmlns:xodm="http://www.corel.com/coreldraw/odm/2003">
 <defs>
  <style type="text/css">
   <![CDATA[
    .fil0 {fill:#EB1C5D}
   ]]>
  </style>
 </defs>
 <g id="Camada_x0020_1">
  <metadata id="CorelCorpID_0Corel-Layer"/>
  <path class="fil0" d="M86628.56 92324.37c-3129.49,-3787.25 -6926.06,-7720.36 -10024.3,-11423.44l-30832.92 -35941.44c-6920.3,-7707.2 -13591.93,-15859.4 -20539.38,-23981.43l-17006.02 -20111.66 -7897.76 0.27 -328.19 103624.16 7940.53 -181.23 254.16 -91023.39c1828.23,898.21 8387.72,9031.22 10226.09,11148.98 3278.92,3777.65 6428.15,7393.27 9761.63,11382.86 6433.63,7700.07 12644.64,15147.35 19511.75,22788.47 6619.25,7365.3 12794.34,15630.46 19480.22,22820.55 3330.74,3582.44 6466.81,7892.55 9734.49,11397.94 2529.31,2713.29 7924.9,8718.65 9575.46,11427.28l8212.52 -97.33 275.55 -103221.39 -7989.06 -74.58 -354.79 91465.37zm57952.61 -43694.7l99.53 6452.55 32139.66 -49.63 109.67 -6471.47 -32348.86 68.55zm141719.56 -12843.69l4424.99 5354.46 29397.31 -35122.19c1069.58,-1197.62 3274.26,-3477.43 4064.45,-5280.71l-9421.1 -75.4 -28465.65 35123.84zm-772.91 30530.5c2424.85,3333.21 5821.12,7064.25 8485.05,10317.67l21456.23 26627.54 9890.22 8.77 -35742.11 -42596.89 -4089.4 5642.9zm50245.96 -59119.53l86422.37 -189.18 -23.58 -7007.77 -86212.08 154.64 -186.72 7042.31zm38981.27 96069.95l7698.15 12.06 492.43 -88296.12 -7764.78 -24.95 -425.8 88309.01zm-124805.39 -51898.72c-5770.94,8664.36 -37994.23,44069.78 -43215.44,52262.83l8656.69 73.75c1822.2,-3070.27 37908.96,-45300.85 43753.1,-52893.17l-10096.41 -12680.83c-3505.67,-4354.8 -6656.82,-8021.41 -10388.96,-12428.58l-20664.68 -24914.47 -9304.85 -22.21c761.4,1948.05 8204.02,10300.67 10102.99,12524.54 2876.42,3367.75 30396.7,35755.55 31157.55,38078.13zm21560.15 -556.59c-928.1,2537.81 -18383.77,22735.01 -21527.52,26429.86 -7265.22,8538.52 -14644.5,17670.08 -21746.86,26230.53 1911.58,299.13 3998.64,328.47 5946.97,260.2 2618.97,-92.12 2986.37,-545.07 4420.88,-2264.45 2133.39,-2556.73 3717.33,-4582.37 6019.07,-7329.66 4159.86,-4965.13 8034.85,-9667.86 12122.6,-14597.35 3215.31,-3877.18 23308.32,-27365.64 24061.49,-29359.75l-39714.43 -47511.56c-2232.65,-2813.64 -5042.72,-2171.78 -10829.02,-1883.89 1192.68,2503.81 31930.19,38899.02 35912.65,43581.19 1937.36,2277.89 3669.63,4109.96 5334.17,6444.88zm-156295.52 53410.55l79898.26 -239.91c483.11,-917.68 258.55,-257.18 522.86,-1500.04l73.48 -5448.78 -71913.86 42.5 73.21 -89147.45 71012.91 -295.29 418.4 -7031.62 -79692.63 159.57 -392.63 103461.02z"/>
 </g>
</svg>
