<svg xmlns="http://www.w3.org/2000/svg" xmlns:xlink="http://www.w3.org/1999/xlink" width="521.731" height="565.246" viewBox="0 0 521.731 565.246"><defs><radialGradient id="a" cx="0.5" cy="0.512" r="2.246" gradientTransform="translate(0.389 -11.879) scale(0.223 0.22)" gradientUnits="objectBoundingBox"><stop offset="0" stop-color="#be9dea"/><stop offset="0.39" stop-color="#e0bff5"/><stop offset="1" stop-color="#fff"/></radialGradient><linearGradient id="b" x1="0.5" x2="0.5" y2="1" gradientUnits="objectBoundingBox"><stop offset="0" stop-color="#132094" stop-opacity="0"/><stop offset="0.318" stop-color="#0a114c" stop-opacity="0.051"/><stop offset="1" stop-color="#0a104a" stop-opacity="0.302"/></linearGradient><linearGradient id="c" x1="0.865" y1="4.587" x2="0.865" y2="3.524" gradientUnits="objectBoundingBox"><stop offset="0" stop-color="#45ffcd"/><stop offset="1" stop-color="#22e0ff"/></linearGradient><linearGradient id="d" x1="0.626" y1="5.534" x2="0.626" y2="4.382" gradientUnits="objectBoundingBox"><stop offset="0" stop-color="#b9acf4"/><stop offset="1" stop-color="#e1d1f5"/></linearGradient><linearGradient id="e" x1="0.575" y1="2.027" x2="0.687" y2="0.994" gradientUnits="objectBoundingBox"><stop offset="0" stop-color="#cbc1f7"/><stop offset="1" stop-color="#e8dcf7"/></linearGradient><linearGradient id="f" x1="0.219" y1="6.178" x2="1.212" y2="6.178" gradientUnits="objectBoundingBox"><stop offset="0" stop-color="#8879ea"/><stop offset="1" stop-color="#9e8cef"/></linearGradient><linearGradient id="g" x1="0.622" y1="2.659" x2="0.622" y2="1.545" gradientUnits="objectBoundingBox"><stop offset="0" stop-color="#9d68c2"/><stop offset="1" stop-color="#ccedff"/></linearGradient><linearGradient id="h" x1="0.715" y1="8.023" x2="0.715" y2="6.671" gradientUnits="objectBoundingBox"><stop offset="0" stop-color="#8da4e5"/><stop offset="1" stop-color="#755cbb"/></linearGradient><linearGradient id="i" x1="0.65" y1="10.305" x2="0.673" y2="9.022" gradientUnits="objectBoundingBox"><stop offset="0" stop-color="#5e36cc"/><stop offset="1" stop-color="#6c4a96"/></linearGradient><linearGradient id="j" x1="0.633" y1="2.416" x2="0.633" y2="1.361" gradientUnits="objectBoundingBox"><stop offset="0" stop-color="#0665bd"/><stop offset="1" stop-color="#1a1f77"/></linearGradient><linearGradient id="k" x1="0.416" y1="0.762" x2="0.416" y2="-0.238" xlink:href="#d"/><linearGradient id="l" x1="0.416" y1="0.751" x2="0.416" y2="-0.248" gradientUnits="objectBoundingBox"><stop offset="0" stop-color="#be9dea"/><stop offset="1" stop-color="#9e8cef"/></linearGradient><linearGradient id="m" x1="0.425" y1="0.747" x2="0.425" y2="-0.254" xlink:href="#c"/><linearGradient id="n" x1="1.042" y1="5.814" x2="1.189" y2="4.602" xlink:href="#l"/><linearGradient id="o" x1="1.241" y1="5.217" x2="1.241" y2="3.668" gradientUnits="objectBoundingBox"><stop offset="0" stop-color="#5fefff"/><stop offset="0.27" stop-color="#65afe9"/><stop offset="0.62" stop-color="#6d5fcd"/><stop offset="0.88" stop-color="#722dbc"/><stop offset="1" stop-color="#741ab5"/></linearGradient><linearGradient id="p" x1="0.9" y1="19.05" x2="0.9" y2="17.764" xlink:href="#c"/><linearGradient id="q" x1="1.083" y1="22.812" x2="1.083" y2="21.483" xlink:href="#c"/><linearGradient id="r" x1="0.109" y1="3.367" x2="1.109" y2="3.367" gradientUnits="objectBoundingBox"><stop offset="0"/><stop offset="1" stop-color="#6a9bff"/></linearGradient><linearGradient id="s" x1="0.309" y1="11.466" x2="1.304" y2="11.466" xlink:href="#r"/><linearGradient id="t" x1="1.392" y1="4.641" x2="1.392" y2="3.586" xlink:href="#r"/><linearGradient id="u" x1="0.404" y1="0.127" x2="0.404" y2="-0.878" gradientUnits="objectBoundingBox"><stop offset="0" stop-color="#d4e2ff"/><stop offset="1"/></linearGradient><linearGradient id="v" x1="-0.088" y1="-0.32" x2="0.911" y2="-0.32" gradientUnits="objectBoundingBox"><stop offset="0"/><stop offset="1" stop-color="#d4e2ff"/></linearGradient><linearGradient id="w" x1="0.418" y1="1.039" x2="0.565" y2="-0.049" gradientUnits="objectBoundingBox"><stop offset="0" stop-color="#cbc1f7"/><stop offset="1" stop-color="#d4bef1"/></linearGradient><linearGradient id="x" x1="0.582" y1="0.99" x2="0.434" y2="-0.003" xlink:href="#l"/><linearGradient id="y" x1="0.5" y1="1" x2="0.5" y2="0" xlink:href="#g"/><linearGradient id="z" x1="0.563" y1="-0.805" x2="0.758" y2="-1.804" xlink:href="#e"/><linearGradient id="aa" x1="0.263" y1="-4.146" x2="1.184" y2="-4.146" xlink:href="#f"/><linearGradient id="ab" x1="0.72" y1="-0.868" x2="0.72" y2="-1.912" xlink:href="#g"/><linearGradient id="ac" x1="0.709" y1="-0.541" x2="0.895" y2="-1.534" xlink:href="#e"/><linearGradient id="ad" x1="1.464" y1="-1.92" x2="1.464" y2="-2.934" xlink:href="#g"/><linearGradient id="ae" x1="0.363" y1="-2.268" x2="1.293" y2="-2.268" xlink:href="#l"/><radialGradient id="af" cx="0.638" cy="0.841" r="0.654" gradientTransform="matrix(1.03, -0.285, 0.307, 0.958, 0.559, 0.159)" xlink:href="#c"/><linearGradient id="ag" x1="1.617" y1="-4.298" x2="2.252" y2="-4.298" xlink:href="#f"/><linearGradient id="ah" x1="1.512" y1="-6.748" x2="1.512" y2="-7.52" xlink:href="#h"/><linearGradient id="ai" x1="0.49" y1="-7.988" x2="1.497" y2="-7.988" xlink:href="#v"/><linearGradient id="aj" x1="0.946" y1="-23.093" x2="0.946" y2="-23.819" xlink:href="#u"/><linearGradient id="ak" x1="1.685" y1="-3.642" x2="1.821" y2="-4.96" xlink:href="#e"/><linearGradient id="al" x1="4.76" y1="-16.298" x2="4.76" y2="-17.249" xlink:href="#l"/><linearGradient id="am" x1="1.793" y1="-3.612" x2="1.793" y2="-5.006" xlink:href="#g"/><linearGradient id="an" x1="3.014" y1="-6.088" x2="3.171" y2="-7.242" xlink:href="#e"/><linearGradient id="ao" x1="3.925" y1="-8.653" x2="3.925" y2="-10.081" xlink:href="#l"/><linearGradient id="ap" x1="15.756" y1="-15.183" x2="15.756" y2="-16.084" xlink:href="#h"/><linearGradient id="aq" x1="6.835" y1="-11.307" x2="7.025" y2="-12.46" xlink:href="#e"/><linearGradient id="ar" x1="1.174" y1="-2.056" x2="1.364" y2="-3.088" xlink:href="#e"/><linearGradient id="as" x1="1.683" y1="-2.023" x2="1.683" y2="-3.066" xlink:href="#g"/><linearGradient id="at" x1="0.653" y1="0.907" x2="0.351" y2="-0.178" xlink:href="#l"/><linearGradient id="au" x1="0.465" y1="1.064" x2="0.539" y2="-0.089" gradientUnits="objectBoundingBox"><stop offset="0" stop-color="#e8dcf7"/><stop offset="1" stop-color="#cbc1f7"/></linearGradient><linearGradient id="av" x1="0.599" y1="0.877" x2="0.405" y2="0.118" xlink:href="#l"/><linearGradient id="aw" x1="0.475" y1="1.121" x2="0.518" y2="-0.032" xlink:href="#e"/><linearGradient id="ax" x1="0.115" y1="-0.56" x2="0.883" y2="1.447" xlink:href="#l"/></defs><ellipse cx="114.3" cy="25.45" rx="114.3" ry="25.45" transform="translate(142.973 514.346)" opacity="0.5" fill="url(#a)"/><path d="M69.076,443.694c23.348,38.6,218.9,28.028,292.084-7.68S441.715,92.61,406.875,46.7,151.06-13.842,60.444,35.965,37.993,392.346,69.076,443.694Z" transform="translate(27.313 8.681)" fill="url(#b)" style="mix-blend-mode:overlay;isolation:isolate"/><path d="M155.591,35.173c.2-18.835,42.575-40.417,66.988-34.027s28.2,90.5-8.969,93.307S155.367,58.661,155.591,35.173Z" transform="translate(280.503 -0.001)" fill="#e5f6ff"/><path d="M18.377,171.8c-3.251-14.154,7.652-29.178,17.63-26.571s21.3,49.666,6.11,50.816S20.591,181.135,18.377,171.8Z" transform="translate(32.075 261.29)" fill="#e5f6ff"/><path d="M78.566,10.56S55.554,27.069,46.249,63.814s44.229-8.577,44.229-8.577Z" transform="translate(81.421 19.035)" fill="url(#c)"/><path d="M49.85,58.546S67.368,14.317,83.484,7.282s40.109,6.811,40.109,6.811Z" transform="translate(89.872 9.531)" fill="url(#d)"/><path d="M275.781,205.478C233.738,250.1,71.846,227.284,49.227,196.593a75.341,75.341,0,0,1-14.014-42.659h0C32.718,86.666,101.219.59,186.09,7.233,243.576,11.746,281.639,67.354,291.7,120.8,297.979,154.214,293.354,186.783,275.781,205.478Z" transform="translate(63.364 12.383)" fill="url(#e)"/><path d="M215.734,105.218a304,304,0,0,1-73.35,6.11c-38.147-2.214-65.39-8.1-80.414-15.135h0c-9.894-4.625-14.491-9.726-13.482-14.659.589-2.971,8.24-5.185,20.152-6.7,35.036-4.288,106.844-2.046,145.131,6.026,3.307.7,6.362,1.429,9.109,2.214l1.71.5h.308c6.587,2.046,11.211,4.316,13.173,6.867a5.157,5.157,0,0,1,.981,1.962C240.174,97.566,230.252,101.938,215.734,105.218Z" transform="translate(87.17 131.059)" fill="url(#f)"/><path d="M275.738,148.69C233.7,193.311,71.8,170.5,49.184,139.8A75.341,75.341,0,0,1,35.17,97.146h0s9.642,21.862,42.435,27.776,129.267,6.615,149.616-6.7S243.87,38.37,243.87,38.37l47.873,25.674C297.937,97.426,293.312,129.995,275.738,148.69Z" transform="translate(63.406 69.172)" opacity="0.3" fill="url(#g)"/><path d="M215.734,105.164c-16.032-8.1-63.008-29.4-102-22.955C65.921,90.056,61.969,96.223,61.969,96.223h0C52.075,91.6,47.479,86.5,48.488,81.564c.589-2.971,8.24-5.185,20.152-6.7,35.036-4.288,106.844-2.046,145.131,6.026,4.008.953,7.624,1.85,10.819,2.8h.308c6.587,2.046,11.211,4.316,13.173,6.867a5.156,5.156,0,0,1,.981,1.962C240.174,97.512,230.252,101.884,215.734,105.164Z" transform="translate(87.17 131.113)" opacity="0.5" fill="url(#h)"/><path d="M209.821,83.076c-9.5,8.1-53.254,13.061-77.835,11.632C87.785,92.1,61.326,83.5,55.58,74.835,93.615,70.183,175.093,73.21,209.821,83.076Z" transform="translate(100.202 131.058)" fill="url(#i)"/><path d="M35.691,152.682c5.606,20.545,145.5,35.989,183.39,2.8s10.959-152.5-63.821-146C83.984,15.595,25.293,115.46,35.691,152.682Z" transform="translate(62.184 16.634)" fill="#dfe3fb"/><path d="M35.9,151.591c5.606,20.545,145.5,35.96,183.39,2.8s10.959-152.279-63.821-146C84.194,14.476,25.5,114.369,35.9,151.591Z" transform="translate(62.563 14.698)" fill="url(#j)"/><path d="M104.928,31.534s-7.343,69.118,35.484,93.307c0,0,20.937,2.158,33.046-10.595,0,0-18.863,17.882-38.9-.561s-15.528-69.567-.533-86.244,37-12.417,37-12.417l-8.8-7.848S130.013.759,104.928,31.534Z" transform="translate(188.306 11.934)" fill="url(#k)"/><path d="M156.126,6.843s-23.712-2.074-40.137,25.534c-17.462,29.29-4.4,79.741,17.013,87.309S175.494,45.41,175.494,45.41L163.021,12.953a14.6,14.6,0,0,0-6.9-6.11Z" transform="translate(194.482 12.269)" fill="url(#l)"/><path d="M184.43,73.043c-2.971,15.808-9.333,28.729-17.882,36.941h0l-2.382,2.13h0a31.112,31.112,0,0,1-24.048,7.287c-28.981-3.5-33.074-45.238-29.794-68.978,3.812-27.356,27.132-43.921,45.77-41.594C178.4,11.576,190.26,42.127,184.43,73.043Z" transform="translate(197.177 15.524)" fill="url(#m)"/><path d="M70.583,52.61a106.284,106.284,0,0,0-39.24,20.237c-19.059,15.64-24.076,34.727-.561,33.018l10.9-6.39s-14.014,1.962-12.192-12.333,40.585-31.9,40.585-31.9Z" transform="translate(27.096 94.844)" fill="url(#n)"/><path d="M19.921,74.086c-7.063,7.147,6.7,13.678,18.247,15.584,12.949,2.13,36.437.7,35.624-12.5S36.485,57.269,19.921,74.086Z" transform="translate(32.437 115.523)" fill="url(#o)"/><path d="M19.463,74.373c-.5,2.13,45.995,5.157,47.648-3S23.415,57.921,19.463,74.373Z" transform="translate(35.081 114.703)" fill="#3fe6ff"/><path d="M78.024,45.488c-1.009,1.373,18.359-11.211,49.19.869C130.3,47.534,97.868,18.412,78.024,45.488Z" transform="translate(140.598 61.157)" fill="url(#p)"/><path d="M43.394,45.219c-1.009,1.345,9.165-8.409,36.213-1.878C82.8,44.1,61.164,21.058,43.394,45.219Z" transform="translate(78.11 61.566)" fill="url(#q)"/><path d="M49.1,64.423c3.167,4.793,29.654-8.969,58.86-6.026s61.046,31.532,84.9,28.028c18.947-2.8-6.026-70.968-54.291-77.05S45.936,59.6,49.1,64.423Z" transform="translate(88.236 16.071)" opacity="0.5" fill="url(#r)"/><path d="M45.93,64.811A204.3,204.3,0,0,1,113.7,60.943c37.446,4.176,43.472,8.156,42.8,11.66s-28.028,10.763-62.307,7.119S45.93,64.811,45.93,64.811Z" transform="translate(82.805 107.645)" opacity="0.5" fill="url(#s)"/><path d="M35.644,101.085S31.832,74.795,55.629,37.349c0,0,5.129-5.858,7.484-3.756S41.614,62.771,35.644,101.085Z" transform="translate(63.857 59.738)" opacity="0.5" fill="url(#t)"/><path d="M111.45,35.43s3.2,25.618,22.03,31.056,34.111-8.24,38.819-27.5c0,0-5.8,16.621-30.355,12.5S111.45,35.43,111.45,35.43Z" transform="translate(200.927 63.871)" opacity="0.72" fill="url(#u)"/><path d="M112.6,33.313c.252,4.765,34.755-5.325,45.77-3.924S174.1,44.272,175.833,43.935s-3.055-31.812-23.516-34.055S112.433,30.117,112.6,33.313Z" transform="translate(203 17.527)" opacity="0.72" fill="url(#v)"/><path d="M54.68,49.9s34.363,1.205,53.815-3.7c0,0-4.6,32.2-26.907,32.2S54.68,49.9,54.68,49.9Z" transform="translate(98.58 83.288)" fill="#2f95cd"/><path d="M105.708,167.661s-57.655,32.681-71.22,31.392-7.512-32.121-7.512-32.121c1.794-2.13,3.812-4.344,5.942-6.587h0c21.778-22.9,58.692-52.077,79.965-65.951h0c9.081-5.886,15.135-8.969,16.172-7.848C136.932,95.319,105.708,167.661,105.708,167.661Z" transform="translate(46.206 155.616)" fill="url(#w)"/><path d="M28.128,116.526s7.54-6.334,16.817,2.186-.308,28.953-9.277,29.962S21.177,129.784,28.128,116.526Z" transform="translate(45.054 205.993)" fill="url(#x)"/><path d="M105.708,167.661s-57.655,32.681-71.22,31.392-7.512-32.121-7.512-32.121c1.794-2.13,3.812-4.344,5.942-6.587h0S46.932,168.754,73,164.69s39.884-70.3,39.884-70.3h0c9.081-5.886,15.135-8.969,16.172-7.848C136.932,95.319,105.708,167.661,105.708,167.661Z" transform="translate(46.206 155.616)" opacity="0.3" fill="url(#y)"/><path d="M119.819,172.786c.841,12.248-12.417,53.927-25.842,66.764h0a11.044,11.044,0,0,1-7.68,3.756c-11.211-.448-24.217-51.4-29.15-80.47-1.906-11.211-2.579-19.171-1.457-19.62C65.079,139.1,118.754,158.184,119.819,172.786Z" transform="translate(99.419 257.166)" fill="url(#z)"/><path d="M120.194,176.936s-12.164,9.221-34.475,1.99c-17.462-5.606-32.289-30.439-30.271-35.54S124.819,157.008,120.194,176.936Z" transform="translate(99.633 256.968)" fill="url(#aa)"/><path d="M119.837,172.773c.841,12.248-12.417,53.927-25.842,66.764,9.305-14.715,5.606-41.23-3.391-52.217-6.811-8.409-25-19.62-33.466-24.469-1.906-11.211-2.579-19.171-1.457-19.62C65.1,139.083,118.772,158.17,119.837,172.773Z" transform="translate(99.401 257.18)" opacity="0.3" fill="url(#ab)"/><path d="M64.284,160c-3.419-.252-1.149,9-.5,9.5s2.242-2.607,2.382-5.129S65.489,160,64.284,160Z" transform="translate(112.575 288.448)" fill="#fff"/><path d="M201.46,212.749c3.391,45.911-15.78,71.725-60.177,84.31C97.811,309.363,57.2,270.32,54.76,211.039c-1.542-37.838-.476-72.145,12.192-97.063h0a66.652,66.652,0,0,1,34.307-32.2c12.781-5.606,25.926-1.682,38.287,7.82C171.75,114.341,198.826,177.349,201.46,212.749Z" transform="translate(97.743 142.76)" fill="url(#ac)"/><path d="M89.86,100.43a545.7,545.7,0,0,1,21.3,54.655c7.9,26.6.448,56.87.448,56.87l25.954-29.738a98.716,98.716,0,0,0-5.858-36.437c-6.867-17.322-10.735-25.029-10.735-25.029Z" transform="translate(162.004 181.056)" opacity="0.3" fill="url(#ad)"/><path d="M54.21,159.182s.364-35.568,31.5-44.846c37.306-11.211,74.724,22.619,80.834,51.264s5.325,57.4-29.57,69.006C136.978,234.634,70.438,252.8,54.21,159.182Z" transform="translate(97.732 202.158)" fill="url(#ae)"/><path d="M54.76,160.561s.364-35.568,31.5-44.846c37.306-11.211,74.724,22.647,80.834,51.264s5.325,57.4-29.57,69.006C137.528,236.013,71.073,254.176,54.76,160.561Z" transform="translate(98.724 204.646)" fill="url(#af)"/><path d="M125.867,154.842a7.624,7.624,0,0,1-6.194-2.158C108.77,144.612,91.644,117,86.711,100.3c-1.878-6.5-1.934-11.211.981-12.781,4.709-2.354,19.844,11.436,31.812,33.634C126.344,134.185,132.79,152.8,125.867,154.842Z" transform="translate(153.941 157.307)" fill="url(#ag)"/><path d="M118.821,144.3c-10.9-8.072-28.028-35.68-32.961-52.385,6.783,4.877,16.369,16.06,24.5,31.14a93.56,93.56,0,0,1,8.465,21.246Z" transform="translate(154.792 165.696)" fill="#6340a2"/><path d="M131.429,89.49s-40.613,30.775-58.579,34c-17.574,3.167-14.21-8.913-14.014-9.614h0A66.736,66.736,0,0,1,93.114,81.614C105.923,76.148,119.041,79.988,131.429,89.49Z" transform="translate(105.383 142.61)" opacity="0.5" fill="url(#ah)"/><path d="M56.229,153.869c7.371,7.54,21.442-9.137,44.033-13.117s37.782,4.064,43.136-.981-24.161-31.812-58.1-23.123C58.191,123.542,53.818,151.291,56.229,153.869Z" transform="translate(100.338 207.19)" opacity="0.72" fill="url(#ai)"/><path d="M73.21,161.808a39.885,39.885,0,0,0,27.244,2.579c15.332-3.98,18.19-12.809,18.19-12.809a32.681,32.681,0,0,0-17.658,4.344A49.442,49.442,0,0,1,73.21,161.808Z" transform="translate(131.986 273.218)" opacity="0.72" fill="url(#aj)"/><path d="M77.526,95.511c-2.635.841.392,28.028,2.8,28.225s3.616-6.082,3.2-15.163S80.048,94.67,77.526,95.511Z" transform="translate(137.929 172.017)" fill="#fff"/><path d="M240.9,186.482c4.12,17.266-12.024,28.9-19.115,28.365-6.166-.476-26.571-7.428-53.254-26.431h0c-3.924-2.8-8.016-5.858-12.22-9.193C123.513,153.212,77.041,97.015,91.84,91.55h0C134.191,75.685,236.748,169.272,240.9,186.482Z" transform="translate(160.472 161.796)" fill="url(#ak)"/><path d="M133.455,153.038s-7.736-13.538,1.289-25.226,29.878-2.8,29.878-2.8a17.686,17.686,0,0,1-6.839,24.777C141.891,159.6,133.455,153.038,133.455,153.038Z" transform="translate(235.035 219.54)" fill="url(#al)"/><path d="M239.256,186.5c4.12,17.266-12.024,28.9-19.115,28.365-6.166-.476-26.571-7.428-53.254-26.431,2.438,1.514,20.18,12.22,27.748,7.736,8.1-4.849,10.342-36.717-33.634-74.612C118.173,84.865,91.546,91.087,89.92,91.536,132.551,75.7,235.107,169.287,239.256,186.5Z" transform="translate(162.112 161.782)" opacity="0.3" fill="url(#am)"/><path d="M136.608,129.3c5.606-5.8,19.48-6.727,26.4-3.476s29.738,20.685,42.043,53.394c0,0-2.13,19.284-15.135,23.067-9.894,2.8-27.1-21.414-40.193-38.175S127.3,138.887,136.608,129.3Z" transform="translate(239.506 223.489)" fill="url(#an)"/><path d="M193.212,188.7s-31.14-61.8-60.962-57.038c0,0,5.606,9.7,23.684,29.122S186.765,190.6,193.212,188.7Z" transform="translate(238.426 236.884)" fill="url(#ao)"/><path d="M155.224,149.576s.477,12.192-2.326,16.313a11.912,11.912,0,0,1-6.783,4.933L141.63,135.59A79.571,79.571,0,0,1,155.224,149.576Z" transform="translate(255.337 244.444)" opacity="0.5" fill="url(#ap)"/><path d="M158.519,142.206s-14.295-12.893-26.207-9.81c0,0-2.3,14.715,24.048,45.742,0,0,9.418,2.8,11.464-8.409A101.825,101.825,0,0,0,158.519,142.206Z" transform="translate(238.448 237.828)" fill="url(#aq)"/><path d="M138.7,135.205c3.111-2.3,8.6,14.967,6.727,15.864S136.1,137.139,138.7,135.205Z" transform="translate(249.072 243.371)" fill="#fff"/><path d="M104.464,108.75c-3.784,6.867,8.409,12.024,11.464,10.959S106.958,104.041,104.464,108.75Z" transform="translate(187.032 194.374)" fill="#fff"/><path d="M109.111,113.068c-1.149.869,3.756,5.213,4.933,5.942,2.27,1.4,6.839,2.018,7.063,1.177S110.317,112,109.111,113.068Z" transform="translate(196.399 203.65)" fill="#fff"/><path d="M35.613,114.753c.617,1.962,14.182-4.148,14.238-10.034S34.744,111.894,35.613,114.753Z" transform="translate(64.14 186.072)" fill="#fff"/><path d="M176.326,252.991c-2.382,2.41-6.923,2.326-12.641.561a104.351,104.351,0,0,1-21.974-10.9h-.168c-22.423-13.818-46.807-35.232-48.125-41.482-4.513-21.61,17.35-49.358,31.308-63.064,5.438-5.381,9.67-8.577,10.651-8.409C138.852,129.974,188.63,240.6,176.326,252.991Z" transform="translate(167.331 233.803)" fill="url(#ar)"/><path d="M156.323,253.063c-2.382,2.41-6.923,2.326-12.641.561l-21.974-10.875c2.046.9,25.674,10.342,17.686-23.712-8.409-35.6-35.484-78.171-35.484-78.171l.813-2.8c5.438-5.381,9.67-8.577,10.651-8.409C118.849,130.046,168.628,240.675,156.323,253.063Z" transform="translate(187.333 233.731)" opacity="0.3" fill="url(#as)"/><path d="M100.024,152.793c-5.241,3.251,7.82,14.266,9.305,14.351s.476-6.138-1.962-9.978C105.181,153.746,101.873,151.644,100.024,152.793Z" transform="translate(178.103 274.889)" fill="#fff"/><path d="M103.284,158.583c-.785,1.233,3.279,4.681,3.9,3.419a3.812,3.812,0,0,0-1.261-3.9,2.27,2.27,0,0,0-2.635.476Z" transform="translate(186.025 284.627)" fill="#fff"/><path d="M11.6,122.578c.168,2.326,16.621-5.3,16.621-8.044S11.35,118.71,11.6,122.578Z" transform="translate(20.911 205.351)" fill="#fff"/><path d="M0,137.979A28.028,28.028,0,0,0,3.111,148.6s8.1,5.438,23.656,4.877,47.845-17.041,52.3-20.012,6.839-12.136,6.839-12.136Z" transform="translate(0 218.736)" fill="url(#at)"/><path d="M84.646,116.075c-7.9-3.2-28.281,1.177-40.753,5.606S11.043,140.488,0,149.429c0,0,.224,8.409,16.537,10.483s60.177-16.481,67.521-24.525S84.646,116.075,84.646,116.075Z" transform="translate(0 207.285)" fill="url(#au)"/><path d="M10,129.481s27.692-3.728,41.818-14.323C52.043,115.159,28.106,114.15,10,129.481Z" transform="translate(18.028 207.585)" fill="url(#av)"/><path d="M57.164,118.94a83.412,83.412,0,0,1-33.382,10.174s-17.378.224-18.331-1.794-1.542-9.642,2.943-11.576S42.953,110.335,57.164,118.94Z" transform="translate(8.619 204.421)" fill="url(#aw)"/><path d="M11,120.12a122.093,122.093,0,0,1,43.108,12.865l2.635-1.457S40.486,120.12,11,120.12Z" transform="translate(19.831 216.554)" fill="url(#ax)"/><path d="M10.72,132.059a39.24,39.24,0,0,1,19-4.989S16.578,133.124,10.72,132.059Z" transform="translate(19.326 229.084)" fill="#fff"/></svg>