<svg xmlns="http://www.w3.org/2000/svg" width="931.97" height="639.393" viewBox="0 0 931.97 639.393"><g transform="translate(-3138 -2311.738)"><path d="M88.245-.189.381-.463C-2.91,24.814,15.933,41.5,24.671,57.82c4.751,8.888,7.95,20.458,14.462,28.027C47.94,96.076,54.615,94.553,66.5,101.282c6.234,16.093-.881,26.027,15.83,38.188,23.246,16.866,14.879-8.888,37.222,12,13.048,20.571-8.714,9.183,12.4,27.55,31.59,27.436,24.428,6.342,42.529,7.8,29.388,2.364-7.138,11.411,38.2,42.8,10.661,7.388,22.157,17.321,33.537,15.093,30.269-5.887,10.244-11.3,37.546,7.8-2.155,21.162-18.055,17.116,21.925,58.646,18.31,19,17.892-.3,33.954,12.252,14.694,11.456-4.7,19.026-10.128,22.549.487,15.071,4.1,60.714,10.522,69.443,12.075,16.366,33.931,15.5,15.343,48.621-13.581,11.3-28.6-21.276-55.531,53.008-15.945,43.984,24.335,40.961-20.094,76.08-33.537-9.433-26.746-42.052-74.675,14.98-14.949,17.776-11.843,24.981-15.181,29.959H316.518l14.7-2.8,16.032-6.287,15.385-10.2,10.849-10.6L384.055,593.1l6.853-16.139,3.662-15.872.68-14.285-1.539-433.426c-53.654-14.3-125.339-15.093-176.722-33.21C178.077,66.458,128.873,42.159,97.167,14.7,93.436,11.449,88.2-.212,88.244-.189Z" transform="translate(3674.719 2312.201)" fill="rgba(40,40,41,0.31)" fill-rule="evenodd"/></g><g transform="translate(335.39 447.434) rotate(90)"><path d="M88.245,637.775l-87.863.274c-3.291-25.277,15.552-41.963,24.29-58.283,4.751-8.888,7.95-20.458,14.462-28.027C47.94,541.51,54.615,543.033,66.5,536.3c6.234-16.094-.881-26.027,15.83-38.188,23.246-16.866,14.879,8.888,37.222-12,13.048-20.572-8.714-9.183,12.4-27.55,11.309-9.822,17.652-13.424,22.257-14.108.606,127.948.113,140.3.113,140.3s.376.072,0,.271c-20.838,11.041-41.211,24.052-57.158,37.863-3.731,3.25-8.969,14.911-8.923,14.889Z" transform="translate(37.444 -302.659)" fill="rgba(40,40,41,0.31)" fill-rule="evenodd"/></g></svg>