<svg id="Componente_27_1" data-name="Componente 27 – 1" xmlns="http://www.w3.org/2000/svg" xmlns:xlink="http://www.w3.org/1999/xlink" width="55" height="55.001" viewBox="0 0 55 55.001">
  <defs>
    <linearGradient id="linear-gradient" x1="1.021" y1="0.626" x2="-0.17" y2="0.288" gradientUnits="objectBoundingBox">
      <stop offset="0" stop-color="#cb3ec9"/>
      <stop offset="1" stop-color="#15d2d5"/>
    </linearGradient>
    <linearGradient id="linear-gradient-2" x1="0.078" y1="0.775" x2="0.91" y2="0.218" gradientUnits="objectBoundingBox">
      <stop offset="0" stop-color="#cb3ec9"/>
      <stop offset="0.645" stop-color="#17d1d5"/>
      <stop offset="1" stop-color="#15d2d5"/>
    </linearGradient>
  </defs>
  <path id="Caminho_957" data-name="Caminho 957" d="M72.22,107.007a16.644,16.644,0,0,0,9.012,2.641c10.913,0,17.078-9.218,16.708-17.485a11.967,11.967,0,0,0,2.933-3.033,11.812,11.812,0,0,1-3.376.925A5.876,5.876,0,0,0,100.08,86.8a11.742,11.742,0,0,1-3.732,1.427,5.876,5.876,0,0,0-10.017,5.361,16.682,16.682,0,0,1-12.115-6.142,5.876,5.876,0,0,0,1.82,7.85,5.877,5.877,0,0,1-2.665-.737,5.876,5.876,0,0,0,4.716,5.839,5.876,5.876,0,0,1-2.654.1,5.876,5.876,0,0,0,5.5,4.083A11.817,11.817,0,0,1,72.22,107.007Z" transform="translate(-59.22 -70.359)" fill="url(#linear-gradient)"/>
  <path id="Subtração_3" data-name="Subtração 3" d="M27.5,55A27.478,27.478,0,0,1,0,27.5c0-.5.014-1,.04-1.5h1c-.027.483-.041.987-.041,1.5A26.5,26.5,0,1,0,27.5,1c-.506,0-1.011.014-1.5.041v-1C26.5.013,27.008,0,27.5,0A27.508,27.508,0,0,1,38.2,52.84,27.328,27.328,0,0,1,27.5,55Z" transform="translate(55 55.001) rotate(180)" fill="url(#linear-gradient-2)"/>
</svg>
