<svg id="Componente_28_1" data-name="Componente 28 – 1" xmlns="http://www.w3.org/2000/svg" xmlns:xlink="http://www.w3.org/1999/xlink" width="55" height="55.001" viewBox="0 0 55 55.001">
  <defs>
    <linearGradient id="linear-gradient" x1="0.15" y1="0.832" x2="0.714" y2="0.082" gradientUnits="objectBoundingBox">
      <stop offset="0" stop-color="#cb3ec9"/>
      <stop offset="0.839" stop-color="#17d1d5"/>
      <stop offset="1" stop-color="#15d2d5"/>
    </linearGradient>
    <linearGradient id="linear-gradient-2" x1="0.109" y1="0.655" x2="1.078" y2="0.678" gradientUnits="objectBoundingBox">
      <stop offset="0" stop-color="#cb3ec9"/>
      <stop offset="1" stop-color="#15d2d5"/>
    </linearGradient>
  </defs>
  <path id="Subtração_1" data-name="Subtração 1" d="M-285.5-504a27.326,27.326,0,0,1-10.7-2.161,27.409,27.409,0,0,1-8.741-5.894,27.411,27.411,0,0,1-5.893-8.741A27.328,27.328,0,0,1-313-531.5c0-.5.014-1,.04-1.5h1c-.027.483-.041.987-.041,1.5A26.53,26.53,0,0,0-285.5-505,26.53,26.53,0,0,0-259-531.5,26.53,26.53,0,0,0-285.5-558c-.506,0-1.011.014-1.5.041v-1c.5-.027,1.008-.04,1.5-.04a27.328,27.328,0,0,1,10.7,2.161,27.408,27.408,0,0,1,8.741,5.894,27.409,27.409,0,0,1,5.893,8.741A27.328,27.328,0,0,1-258-531.5a27.328,27.328,0,0,1-2.161,10.7,27.409,27.409,0,0,1-5.893,8.741,27.409,27.409,0,0,1-8.741,5.894A27.328,27.328,0,0,1-285.5-504Z" transform="translate(313 559)" fill="url(#linear-gradient)"/>
  <path id="União_4" data-name="União 4" d="M-309.239-542.332h-3.353l-.019-5.924c-.015-5.845-.015-5.933-.117-6.38-.507-2.2-1.485-3.052-3.368-2.964a2.924,2.924,0,0,0-2.132.827,4.829,4.829,0,0,0-1.076,1.441l-.229.457-.014,6.273-.01,6.269h-6.62v-20.052h6.62v1.407a9.471,9.471,0,0,1-.049,1.44.106.106,0,0,0-.049.078.048.048,0,0,0,.049.043c.029,0,.049-.029.049-.063a5.447,5.447,0,0,1,.788-1.046,10.754,10.754,0,0,1,1.645-1.509,6.276,6.276,0,0,1,2.6-.783,12.418,12.418,0,0,1,2.4.068,7.2,7.2,0,0,1,4.18,2.185,7.979,7.979,0,0,1,1.884,4.337c.15.968.175,2.048.175,7.967v5.928Zm-24.091,0h-3.358v-20.051h6.716v20.051Zm-2.983-24.178a3.074,3.074,0,0,1-.686-2.078,2.883,2.883,0,0,1,.316-1.518,3.559,3.559,0,0,1,2.784-1.865,6.138,6.138,0,0,1,1.84.1,3.5,3.5,0,0,1,2.56,3.188,3.4,3.4,0,0,1-3.446,3.451q-.19.014-.376.014A3.7,3.7,0,0,1-336.314-566.511Z" transform="translate(349 581)" fill="url(#linear-gradient-2)"/>
</svg>
