<svg xmlns="http://www.w3.org/2000/svg" width="2303" height="1278" viewBox="0 0 2303 1278">
  <path id="Interseção_5" data-name="Interseção 5" d="M2128.5,1278.552c-5.507-.054-10.662-.114-15.942-.175-30.013-.344-63.971-.687-188.392.175h-65.262c81.737-96.358,72.779-57.082,112.629-50.315,38.565-66.847,26.567-17.25,18.048-93.151-3.231-28.536,16.6-56.556,31.525-82.664,34.987-61.224,54.926-60.788,66.954-60.351,9.783.356,14.333.709,17.491-32.1,4.334-45.06-36.267-28.589,18.48-105.582,20.281-28.478,22.147-24.8,26.57-21.119,3.569,2.969,8.8,5.938,26.723-7.99,41.536-54.354-8-35.186,25.988-92.062,24.5-40.882,42.709-22.475,73.75-36.962,13.787-29.217,11.484-45.969,31.636-67.263,14.913-15.745,37.118-22.959,54.375-34.223,19.174-12.533,38.923-34.287,61.88-47.215v251.01c-49.554,77.3-94.072,186.387-120.98,274.5-18.434,60.318-29.863,132.322-40.141,205.24-13.474.1-25.57.181-36.479.244Zm-2006.546,0V311.063l3.018-21.5C247.886,262.595,421.982,220.3,539.692,186.137c89.143-25.85,179.526-73.754,252.159-125.539C840.619,31.247,859.391,4.672,862.084.552h179.992c7.1,47.428-39.144,87.054-59.083,117.715-10.884,16.762-18.211,38.582-33.131,52.857-20.175,19.291-35.466,16.42-62.7,29.107-14.282,30.352,2.017,49.085-36.263,72.021-25.429,15.187-34.345,12.049-42.293,8.914-8.7-3.434-16.233-6.866-42.977,13.72-29.893,38.8,19.963,17.319-28.4,51.956-49.411,35.328-57.437,27.989-70.755,20.651-6.187-3.408-13.518-6.818-26.673-5.947-67.322,4.46,3.749,88.042-100.1,147.244-24.424,13.932-50.759,32.666-76.828,28.464-69.341-11.1-23.468-21.3-86.013,14.705,4.938,39.91,41.36,32.279-50.226,110.6-22.9,19.567-33.016,17.6-43.467,15.634-8.689-1.636-17.613-3.271-34.316,7.472-33.661,21.607,10.778,35.882,23.2,42.527-1.114,28.422-9.4,114.5-24.1,130.963-27.661,30.866-77.73,29.237-35.149,91.7,9.056,6.2,18.39,5.392,28.595,4.585,24.857-1.967,54.88-3.934,98.619,95.385,36.527,82.949-55.75,77.25,46.031,143.481,76.828-17.791,61.27-79.307,171.069,28.251,33.642,32.932,27.37,46.627,34.386,56Z" transform="translate(-121.956 -0.552)" fill="rgba(40,40,41,0.1)"/>
</svg>
